<svg width="48" height="44" viewBox="0 0 48 44" fill="none" xmlns="http://www.w3.org/2000/svg">
<path d="M36 20.1665H12V10.9998H36M33 31.1665C32.2044 31.1665 31.4413 30.8768 30.8787 30.361C30.3161 29.8453 30 29.1458 30 28.4165C30 27.6872 30.3161 26.9877 30.8787 26.472C31.4413 25.9562 32.2044 25.6665 33 25.6665C33.7956 25.6665 34.5587 25.9562 35.1213 26.472C35.6839 26.9877 36 27.6872 36 28.4165C36 29.1458 35.6839 29.8453 35.1213 30.361C34.5587 30.8768 33.7956 31.1665 33 31.1665ZM15 31.1665C14.2044 31.1665 13.4413 30.8768 12.8787 30.361C12.3161 29.8453 12 29.1458 12 28.4165C12 27.6872 12.3161 26.9877 12.8787 26.472C13.4413 25.9562 14.2044 25.6665 15 25.6665C15.7956 25.6665 16.5587 25.9562 17.1213 26.472C17.6839 26.9877 18 27.6872 18 28.4165C18 29.1458 17.6839 29.8453 17.1213 30.361C16.5587 30.8768 15.7956 31.1665 15 31.1665ZM8 29.3332C8 30.9465 8.78 32.3948 10 33.4032V36.6665C10 37.1527 10.2107 37.619 10.5858 37.9629C10.9609 38.3067 11.4696 38.4998 12 38.4998H14C14.5304 38.4998 15.0391 38.3067 15.4142 37.9629C15.7893 37.619 16 37.1527 16 36.6665V34.8332H32V36.6665C32 37.1527 32.2107 37.619 32.5858 37.9629C32.9609 38.3067 33.4696 38.4998 34 38.4998H36C36.5304 38.4998 37.0391 38.3067 37.4142 37.9629C37.7893 37.619 38 37.1527 38 36.6665V33.4032C39.22 32.3948 40 30.9465 40 29.3332V10.9998C40 4.58317 32.84 3.6665 24 3.6665C15.16 3.6665 8 4.58317 8 10.9998V29.3332Z" fill="#2E2A39"/>
</svg>
