<svg width="48" height="48" viewBox="0 0 48 48" fill="none" xmlns="http://www.w3.org/2000/svg">
<path d="M33.858 8.5542L32.1705 8.57229L32.2099 12.2267C27.9187 13.4721 22.0349 14.0771 16.6029 14.4366C19.8933 23.4633 25.9177 30.7276 31.4009 38.5426C33.3432 36.6999 36.1925 35.5442 39.2253 35.1666C37.2753 33.4689 35.7909 32.5448 33.7097 28.5631C36.6413 32.0398 38.639 33.1069 40.9869 34.3761C41.2928 33.1486 41.8248 32.0663 42.7419 31.313C43.5545 30.6455 44.6194 30.3141 45.8854 30.3432C41.4909 24.7404 36.3538 19.3694 33.9013 12.5837L33.858 8.5542ZM15.3044 9.64873L13.6171 9.67161C13.6171 9.67161 13.6405 11.391 13.6696 13.1375C13.6842 14.0109 13.7001 14.8909 13.7154 15.5684C13.7211 15.8155 13.7264 15.9978 13.7318 16.1817C10.5088 24.0317 7.24857 31.2748 2.11426 38.0669C5.26754 37.9369 8.33232 37.9541 11.3535 38.063C13.4407 32.1927 13.5422 25.4204 14.6935 19.125C15.7639 25.5527 15.6841 32.1979 17.8326 38.4215C21.8603 38.7105 25.866 39.0964 29.9591 39.4459C24.7401 32.0255 18.8767 24.9111 15.4168 16.0679C15.4121 15.9008 15.4074 15.7495 15.4026 15.53C15.3874 14.8592 15.3714 13.981 15.3568 13.1094C15.3278 11.3662 15.3044 9.64873 15.3044 9.64873Z" fill="#2E2A39"/>
</svg>
