<svg width="250" height="159" viewBox="0 0 250 159" fill="none" xmlns="http://www.w3.org/2000/svg">
<path d="M189.348 125.446C189.411 125.403 189.476 125.368 189.543 125.337C192.559 136.262 195.331 147.283 198.902 158.038C209.046 153.908 219.119 149.614 229.013 144.914C236.148 141.525 243.154 137.908 250 134.026C240.043 121.597 230.933 109.382 221.956 95.5257C222.663 94.8973 223.37 94.2617 224.083 93.636C228.968 87.0124 233.045 79.5605 234.758 71.4954C236.351 63.9852 233.111 53.8548 228.763 47.7752C221.953 38.2732 212.496 31.8056 206.35 21.6178C203.934 17.6197 202.489 12.7513 202.139 8.11322C201.991 6.21999 201.987 2.62714 200.31 1.23232C196.519 -1.93204 193.149 1.64287 190.637 4.71131C186.144 10.1804 182.227 19.4637 182.372 26.6261C182.495 32.529 183.194 38.3575 182.943 44.264C182.796 47.6444 178.586 49.6999 174.322 51.0561C166.995 52.3775 159.496 54.3209 151.961 55.4441C147.662 55.5078 143.371 55.6664 139.111 56.1084C129.655 54.1694 121.548 48.7891 113.526 43.0278C103.052 35.5069 91.9919 29.3431 80.5187 23.4976C70.0879 18.1881 40.9597 7.58344 34.0708 23.6697C31.9731 23.6132 29.9454 23.7548 28.0692 24.1896C22.7777 25.4365 17.0056 26.419 14.3415 30.7818C13.6136 31.6433 13.1412 32.6607 13.0632 33.8727C13.0381 34.329 13.1017 34.8444 13.2721 35.307C7.75461 36.4409 2.79831 39.2494 0.325988 44.731C-1.16834 48.0343 2.83775 51.81 4.99543 53.5061C9.10372 56.7412 14.6776 57.6143 19.1077 60.0616C18.924 61.2735 19.1221 62.576 19.8428 63.9726C22.1672 68.4404 30.8069 70.6097 34.8695 72.8391C42.8216 77.2154 50.0691 81.5595 57.2934 87.1415C63.1533 91.6737 69.0347 96.1415 74.4499 101.204C79.9674 106.354 83.6382 113.868 89.6783 118.367C95.8214 122.939 102.522 124.836 109.725 126.998C116.994 129.181 124.43 131.156 132.06 131.495C147.755 132.201 163.658 133.395 178.885 129.047C182.397 128.05 185.901 126.818 189.348 125.446Z" fill="#FD55B7" fill-opacity="0.28"/>
<path d="M64.6501 20.7742C75.8374 23.7244 87.4379 30.5838 97.3111 36.4903C105.417 41.3336 112.952 46.9568 120.954 51.9373C124.733 54.2868 128.287 56.0564 131.953 57.1509C128.749 57.7623 125.555 58.5816 122.392 59.694C119.503 60.7186 116.687 61.9441 113.935 63.3147C104.111 60.4291 94.8638 51.6621 86.5092 46.0344C76.5375 39.3158 65.7428 31.4138 54.1387 27.9241C48.8435 26.3276 41.9339 24.1977 35.5479 23.7414C42.9612 16.4867 55.2574 18.3019 64.6501 20.7742Z" fill="#E8FFFF"/>
<path d="M15.8482 33.9196C15.7281 33.6301 15.6752 33.3611 15.6573 33.0967C15.954 32.3482 16.3072 31.6203 16.6218 30.8754C20.186 27.5479 32.2948 26.8836 34.2122 26.9535C46.0781 27.3775 57.0207 31.1568 67.2264 37.1162C76.2372 42.3899 85.1288 48.0947 93.755 53.9653C99.9197 58.1471 105.842 62.8381 113.155 63.6968C109.92 65.3507 106.787 67.2045 103.784 69.2071C101.547 70.7014 99.5773 72.4288 97.7181 74.3364C74.0437 61.0874 53.5139 39.8324 25.8092 35.2086C22.5489 34.6609 18.9668 34.505 15.5049 34.9299C15.8061 34.6932 15.9889 34.2755 15.8482 33.9196Z" fill="#E8FFFF"/>
<path d="M19.3966 58.9323C11.7878 54.2449 -3.76509 47.1587 6.76872 40.2814C17.8709 33.0258 34.036 38.0699 44.9113 43.7183C55.0955 48.9991 64.8163 54.919 74.4384 61.2065C81.5775 65.8804 88.8546 72.4574 97.1868 74.8849C97.0461 75.0328 96.9009 75.1745 96.7593 75.3296C96.7817 75.308 96.1631 75.8844 95.3322 76.6509C94.9575 77.0668 94.5451 77.4388 94.2941 77.6853C93.6827 78.3003 92.8034 78.9923 92.1427 79.7588C91.8424 80.2285 91.5493 80.6991 91.2669 81.1868C91.1217 81.4512 90.825 81.5749 90.5713 81.5641C90.5533 81.6134 90.5426 81.6592 90.5291 81.7129C83.945 76.8239 78.077 70.4055 71.5215 65.7361C60.8998 58.1703 48.3455 51.5144 35.1171 50.9075C30.2065 50.687 21.2764 53.7886 19.3966 58.9323Z" fill="#E8FFFF"/>
<path d="M15.8482 33.9196C15.7281 33.6301 15.6752 33.3611 15.6573 33.0967C15.954 32.3482 16.3072 31.6203 16.6218 30.8754C20.186 27.5479 32.2948 26.8836 34.2122 26.9535C46.0781 27.3775 57.0207 31.1568 67.2264 37.1162C76.2372 42.3899 85.1288 48.0947 93.755 53.9653C99.9197 58.1471 105.842 62.8381 113.155 63.6968C109.92 65.3507 106.787 67.2045 103.784 69.2071C101.547 70.7014 99.5773 72.4288 97.7181 74.3364C74.0437 61.0874 53.5139 39.8324 25.8092 35.2086C22.5489 34.6609 18.9668 34.505 15.5049 34.9299C15.8061 34.6932 15.9889 34.2755 15.8482 33.9196Z" fill="#E8FFFF"/>
<path d="M19.3966 58.9323C11.7878 54.2449 -3.76509 47.1587 6.76872 40.2814C17.8709 33.0258 34.036 38.0699 44.9113 43.7183C55.0955 48.9991 64.8163 54.919 74.4384 61.2065C81.5775 65.8804 88.8546 72.4574 97.1868 74.8849C97.0461 75.0328 96.9009 75.1745 96.7593 75.3296C96.7817 75.308 96.1631 75.8844 95.3322 76.6509C94.9575 77.0668 94.5451 77.4388 94.2941 77.6853C93.6827 78.3003 92.8034 78.9923 92.1427 79.7588C91.8424 80.2285 91.5493 80.6991 91.2669 81.1868C91.1217 81.4512 90.825 81.5749 90.5713 81.5641C90.5533 81.6134 90.5426 81.6592 90.5291 81.7129C83.945 76.8239 78.077 70.4055 71.5215 65.7361C60.8998 58.1703 48.3455 51.5144 35.1171 50.9075C30.2065 50.687 21.2764 53.7886 19.3966 58.9323Z" fill="#E8FFFF"/>
<path d="M189.456 122.204C189.727 122.027 189.993 121.832 190.275 121.674C190.296 121.751 190.317 121.829 190.341 121.9C191.324 121.553 192.305 121.232 193.284 120.879C194.011 120.613 195.04 120.246 196.213 119.798C196.198 119.723 196.189 119.652 196.178 119.582C196.577 119.458 196.969 119.317 197.364 119.151C197.378 119.214 197.393 119.278 197.406 119.331C198.732 118.801 200.172 118.187 201.568 117.508C198.223 120.009 194.747 122.306 191.144 124.4C194.397 134.613 197.418 144.91 201.392 154.857C201.638 155.474 201.885 156.094 202.136 156.717C211.186 152.991 220.171 149.114 229.014 144.914C234.723 142.204 240.351 139.344 245.88 136.321C245.73 136.125 245.582 135.929 245.433 135.732C236.048 123.294 227.477 110.694 219.886 97.371C219.731 97.5045 219.573 97.6354 219.424 97.7734C219.555 97.6004 219.685 97.4301 219.812 97.2508C219.749 97.1442 219.678 97.0348 219.615 96.9254C220.236 96.2047 220.84 95.4777 221.423 94.7319C221.459 94.7857 221.498 94.8448 221.537 94.8986C227.662 86.3432 232.8 76.8161 232.89 66.1622C232.939 60.2207 229.919 54.636 226.255 50.1674C224.062 47.4826 221.414 45.2675 219.05 42.7459C216.634 40.1642 214.55 37.3378 211.921 34.9578C207.033 29.1257 202.649 22.9969 201.021 15.1407C200.382 12.0427 200.456 9.05763 199.996 5.97843C198.65 -3.05029 189.332 8.44717 188.229 11.0755C185.142 18.4404 184.404 25.6817 185.415 33.234C185.433 33.2806 185.464 33.3219 185.468 33.3819C186.04 37.0555 187.766 41.0257 187.672 44.7458C187.572 48.6282 186.608 52.4748 186.082 56.3222C184.771 66.0958 185.726 72.896 191.176 81.0911C191.318 81.3027 190.933 81.603 190.756 81.4156C185.027 75.1954 181.823 70.0445 182.797 61.274C183.243 57.2473 184.366 52.9624 184.755 48.8927C184.161 49.7335 183.448 50.482 182.642 51.1534C180.667 51.9378 178.579 52.499 176.647 52.9767C171.956 54.1385 167.123 54.8628 162.359 55.6543C158.085 56.3535 153.811 57.0277 149.562 57.7878C147.83 57.9644 146.065 58.1267 144.287 58.1975C143.761 58.2504 143.217 58.3284 142.701 58.3642C141.729 58.4808 140.759 58.6071 139.787 58.7631C132.273 59.9643 125.897 62.3945 118.812 64.839C110.267 67.782 103.555 72.8405 96.7974 78.6116C95.2224 79.9535 93.6716 82.0521 91.6475 82.5146C96.7024 86.0895 102.231 88.647 108.826 88.8048C105.417 89.5999 101.556 89.063 98.2326 88.4973C97.6105 88.3915 96.9929 88.2714 96.3851 88.1378C91.3902 86.449 86.7172 83.7221 83.2481 80.1364C78.7615 75.4993 73.0603 70.8038 67.5787 67.4234C62.383 64.2268 56.8504 60.2315 51.3159 57.7098C44.8903 54.7848 36.3699 52.0866 29.4047 54.5096C27.5787 55.0537 25.8441 55.8166 24.201 56.8018C22.3571 61.352 23.1092 64.3326 26.4582 65.7489C29.0435 67.141 31.7847 68.067 34.3709 69.4296C45.456 75.2474 55.3282 81.5035 65.3744 88.9984C70.0519 92.4917 74.7608 96.1841 78.7911 100.419C83.6057 105.47 87.5195 112.944 93.5103 116.664C104.069 123.22 117.831 126.138 130.064 127.699C137.301 128.617 145.238 128.869 152.547 128.664C160.577 128.435 167.927 128.816 175.784 126.584C180.398 125.28 184.937 123.783 189.456 122.204Z" fill="#E8FFFF"/>
<path d="M189.456 122.204C189.727 122.027 189.993 121.832 190.275 121.674C190.296 121.751 190.317 121.829 190.341 121.9C191.324 121.553 192.305 121.232 193.284 120.879C194.011 120.613 195.04 120.246 196.213 119.798C196.198 119.723 196.189 119.652 196.178 119.582C196.577 119.458 196.969 119.317 197.364 119.151C197.378 119.214 197.393 119.278 197.406 119.331C198.732 118.801 200.172 118.187 201.568 117.508C198.223 120.009 194.747 122.306 191.144 124.4C194.397 134.613 197.418 144.91 201.392 154.857C201.638 155.474 201.885 156.094 202.136 156.717C208.164 154.233 214.165 151.686 220.114 149.018C217.108 138.382 208.636 105.773 222.473 101.716C221.616 100.265 220.718 98.8366 219.887 97.371C219.732 97.5045 219.574 97.6354 219.425 97.7734C219.556 97.6004 219.686 97.4301 219.813 97.2508C219.75 97.1442 219.678 97.0348 219.616 96.9254C220.237 96.2047 220.841 95.4777 221.424 94.7319C221.46 94.7857 221.499 94.8448 221.538 94.8986C227.663 86.3432 232.801 76.8161 232.891 66.1622C232.94 60.2207 229.92 54.636 226.256 50.1674C224.063 47.4826 221.415 45.2675 219.051 42.7459C216.635 40.1642 214.551 37.3378 211.922 34.9578C207.034 29.1257 202.65 22.9969 201.022 15.1407C200.383 12.0427 200.457 9.05763 199.997 5.97843C198.651 -3.05029 189.333 8.44717 188.23 11.0755C185.143 18.4404 184.405 25.6817 185.416 33.234C185.433 33.2806 185.465 33.3219 185.468 33.3819C186.041 37.0555 187.767 41.0257 187.673 44.7458C187.573 48.6282 186.609 52.4748 186.083 56.3222C184.772 66.0958 185.727 72.896 191.177 81.0911C191.318 81.3027 190.934 81.603 190.756 81.4156C185.027 75.1954 181.824 70.0445 182.798 61.274C183.244 57.2473 184.367 52.9624 184.756 48.8927C184.161 49.7335 183.449 50.482 182.643 51.1534C180.668 51.9378 178.58 52.499 176.648 52.9767C171.957 54.1385 167.124 54.8628 162.36 55.6543C158.086 56.3535 153.811 57.0277 149.562 57.7878C147.831 57.9644 146.065 58.1267 144.288 58.1975C143.762 58.2504 143.218 58.3284 142.702 58.3642C141.73 58.4808 140.76 58.6071 139.788 58.7631C132.274 59.9643 125.898 62.3945 118.813 64.839C110.268 67.782 103.556 72.8405 96.7983 78.6116C95.2233 79.9535 93.6725 82.0521 91.6484 82.5146C94.1494 84.285 96.7562 85.7919 99.5539 86.8954C101.543 87.3123 103.511 87.8349 105.435 88.4821C106.537 88.6479 107.661 88.7779 108.826 88.8057C108.297 88.9294 107.753 89.011 107.202 89.0746C110.667 90.3 114.571 91.5514 118.188 91.6455C126.86 91.8795 135.277 87.8232 143.766 86.4042C151.219 85.1599 158.478 85.1115 165.925 86.319C170.192 87.0084 174.437 87.8904 178.733 88.3924C181.825 88.7492 186.801 89.7532 189.663 88.1387C194.852 85.2281 197.523 79.162 202.195 75.5602C206.307 72.3985 212.654 69.6358 217.942 69.5479C229.413 69.3642 217.688 83.8332 214.3 86.7367C210.849 89.6931 206.917 91.5308 202.873 93.5289C198.651 95.6104 194.826 98.2064 191.055 101.004C183.125 106.886 175.485 111.41 165.506 112.65C153.404 114.155 141.193 113.36 129.073 112.414C119.945 111.703 110.672 110.922 102.248 107.019C93.7451 103.077 86.7405 96.9129 79.6194 90.9499C70.0322 82.9315 59.8516 75.6301 49.0255 69.3776C44.9136 67.0003 40.8977 64.7611 36.4604 63.0552C33.1365 61.7805 29.6611 60.6313 26.5138 58.9397C25.4363 58.3642 24.6698 57.7134 24.1221 57.0286C22.3983 61.4443 23.1683 64.3586 26.4573 65.7498C29.0426 67.1419 31.7838 68.0679 34.37 69.4305C45.4551 75.2483 55.3273 81.5044 65.3735 88.9993C70.051 92.4927 74.7599 96.185 78.7902 100.42C83.6049 105.471 87.5186 112.945 93.5094 116.665C104.068 123.221 117.83 126.139 130.063 127.7C137.3 128.618 145.237 128.87 152.547 128.665C160.576 128.435 167.926 128.816 175.783 126.585C180.398 125.28 184.937 123.783 189.456 122.204Z" fill="#E8FFFF"/>
<path d="M185.689 88.1269C163.958 78.8902 139.323 78.901 120.703 93.0796C128.845 88.4837 139.502 86.8728 147.913 85.937C160.481 84.535 173.883 84.8245 186.154 88.5151C186.06 88.3636 185.921 88.2228 185.689 88.1269Z" fill="#FD55B7" fill-opacity="0.28"/>
</svg>
