<svg width="251" height="159" viewBox="0 0 251 159" fill="none" xmlns="http://www.w3.org/2000/svg">
<path d="M61.0608 125.446C60.9981 125.403 60.9336 125.368 60.8663 125.337C57.8499 136.262 55.0782 147.283 51.5068 158.038C41.363 153.908 31.2899 149.614 21.3961 144.914C14.2615 141.525 7.25513 137.908 0.409181 134.026C10.3657 121.597 19.476 109.382 28.4527 95.5257C27.7464 94.8973 27.0391 94.2617 26.3264 93.636C21.441 87.0124 17.364 79.5605 15.651 71.4954C14.058 63.9852 17.2977 53.8548 21.6462 47.7752C28.4563 38.2732 37.9135 31.8056 44.0594 21.6178C46.4752 17.6197 47.9203 12.7513 48.2699 8.11322C48.4178 6.21999 48.4222 2.62714 50.0994 1.23232C53.8904 -1.93204 57.26 1.64287 59.7718 4.71131C64.2656 10.1804 68.182 19.4637 68.0377 26.6261C67.914 32.529 67.2148 38.3575 67.4658 44.264C67.6137 47.6444 71.8232 49.6999 76.0875 51.0561C83.4139 52.3775 90.9134 54.3209 98.4478 55.4441C102.747 55.5078 107.038 55.6664 111.298 56.1084C120.754 54.1694 128.861 48.7891 136.883 43.0278C147.357 35.5069 158.417 29.3431 169.891 23.4976C180.321 18.1881 209.449 7.58344 216.338 23.6697C218.436 23.6132 220.464 23.7548 222.34 24.1896C227.632 25.4365 233.404 26.419 236.068 30.7818C236.796 31.6433 237.268 32.6607 237.346 33.8727C237.371 34.329 237.307 34.8444 237.137 35.307C242.655 36.4409 247.611 39.2494 250.083 44.731C251.578 48.0343 247.571 51.81 245.414 53.5061C241.305 56.7412 235.732 57.6143 231.301 60.0616C231.485 61.2735 231.287 62.576 230.566 63.9726C228.242 68.4404 219.602 70.6097 215.54 72.8391C207.588 77.2154 200.34 81.5595 193.116 87.1415C187.256 91.6737 181.375 96.1415 175.959 101.204C170.442 106.354 166.771 113.868 160.731 118.367C154.588 122.939 147.887 124.836 140.684 126.998C133.415 129.181 125.979 131.156 118.349 131.495C102.655 132.201 86.7513 133.395 71.5238 129.047C68.0126 128.05 64.5085 126.818 61.0608 125.446Z" fill="#FD55B7" fill-opacity="0.28"/>
<path d="M185.759 20.7747C174.572 23.7248 162.971 30.5842 153.098 36.4907C144.992 41.3341 137.457 46.9573 129.455 51.9378C125.676 54.2873 122.122 56.0569 118.456 57.1514C121.66 57.7627 124.854 58.5821 128.017 59.6945C130.906 60.7191 133.722 61.9445 136.474 63.3152C146.298 60.4296 155.545 51.6626 163.9 46.0349C173.872 39.3163 184.666 31.4143 196.271 27.9246C201.566 26.3281 208.475 24.1982 214.861 23.7419C207.448 16.4872 195.152 18.3024 185.759 20.7747Z" fill="#E8FFFF"/>
<path d="M234.561 33.9196C234.681 33.6301 234.734 33.3611 234.752 33.0967C234.455 32.3482 234.102 31.6203 233.787 30.8754C230.223 27.5479 218.114 26.8836 216.197 26.9535C204.331 27.3775 193.388 31.1568 183.183 37.1162C174.172 42.3899 165.28 48.0947 156.654 53.9653C150.489 58.1471 144.567 62.8381 137.254 63.6968C140.489 65.3507 143.622 67.2045 146.625 69.2071C148.862 70.7014 150.832 72.4288 152.691 74.3364C176.365 61.0874 196.895 39.8324 224.6 35.2086C227.86 34.6609 231.442 34.505 234.904 34.9299C234.603 34.6932 234.42 34.2755 234.561 33.9196Z" fill="#E8FFFF"/>
<path d="M231.013 58.9323C238.621 54.2449 254.174 47.1587 243.64 40.2814C232.538 33.0258 216.373 38.0699 205.498 43.7183C195.314 48.9991 185.593 54.919 175.971 61.2065C168.832 65.8804 161.555 72.4574 153.222 74.8849C153.363 75.0328 153.508 75.1745 153.65 75.3296C153.628 75.308 154.246 75.8844 155.077 76.6509C155.452 77.0668 155.864 77.4388 156.115 77.6853C156.726 78.3003 157.606 78.9923 158.266 79.7588C158.567 80.2285 158.86 80.6991 159.142 81.1868C159.288 81.4512 159.584 81.5749 159.838 81.5641C159.856 81.6134 159.867 81.6592 159.88 81.7129C166.464 76.8239 172.332 70.4055 178.888 65.7361C189.509 58.1703 202.064 51.5144 215.292 50.9075C220.203 50.687 229.133 53.7886 231.013 58.9323Z" fill="#E8FFFF"/>
<path d="M234.561 33.9196C234.681 33.6301 234.734 33.3611 234.752 33.0967C234.455 32.3482 234.102 31.6203 233.787 30.8754C230.223 27.5479 218.114 26.8836 216.197 26.9535C204.331 27.3775 193.388 31.1568 183.183 37.1162C174.172 42.3899 165.28 48.0947 156.654 53.9653C150.489 58.1471 144.567 62.8381 137.254 63.6968C140.489 65.3507 143.622 67.2045 146.625 69.2071C148.862 70.7014 150.832 72.4288 152.691 74.3364C176.365 61.0874 196.895 39.8324 224.6 35.2086C227.86 34.6609 231.442 34.505 234.904 34.9299C234.603 34.6932 234.42 34.2755 234.561 33.9196Z" fill="#E8FFFF"/>
<path d="M231.013 58.9323C238.621 54.2449 254.174 47.1587 243.64 40.2814C232.538 33.0258 216.373 38.0699 205.498 43.7183C195.314 48.9991 185.593 54.919 175.971 61.2065C168.832 65.8804 161.555 72.4574 153.222 74.8849C153.363 75.0328 153.508 75.1745 153.65 75.3296C153.628 75.308 154.246 75.8844 155.077 76.6509C155.452 77.0668 155.864 77.4388 156.115 77.6853C156.726 78.3003 157.606 78.9923 158.266 79.7588C158.567 80.2285 158.86 80.6991 159.142 81.1868C159.288 81.4512 159.584 81.5749 159.838 81.5641C159.856 81.6134 159.867 81.6592 159.88 81.7129C166.464 76.8239 172.332 70.4055 178.888 65.7361C189.509 58.1703 202.064 51.5144 215.292 50.9075C220.203 50.687 229.133 53.7886 231.013 58.9323Z" fill="#E8FFFF"/>
<path d="M60.9525 122.204C60.6809 122.027 60.4155 121.832 60.1332 121.674C60.1125 121.751 60.091 121.829 60.0668 121.9C59.0843 121.553 58.1028 121.232 57.1239 120.879C56.3969 120.613 55.3687 120.246 54.1953 119.798C54.2105 119.723 54.2195 119.652 54.2302 119.582C53.8313 119.458 53.4396 119.317 53.0443 119.151C53.0299 119.214 53.0156 119.278 53.0022 119.331C51.6764 118.801 50.2358 118.187 48.8401 117.508C52.1855 120.009 55.6609 122.306 59.2645 124.4C56.0114 134.613 52.9905 144.91 49.0167 154.857C48.7702 155.474 48.5228 156.094 48.2726 156.717C39.2224 152.991 30.2367 149.114 21.3944 144.914C15.6851 142.204 10.0574 139.344 4.52832 136.321C4.67803 136.125 4.82596 135.929 4.97566 135.732C14.3603 123.294 22.9309 110.694 30.5218 97.371C30.6769 97.5045 30.8355 97.6354 30.9843 97.7735C30.8535 97.6004 30.7235 97.4301 30.5962 97.2508C30.6589 97.1442 30.7306 97.0348 30.7934 96.9254C30.1722 96.2047 29.568 95.4777 28.9853 94.7319C28.9495 94.7857 28.91 94.8449 28.8715 94.8986C22.7462 86.3432 17.608 76.8161 17.5183 66.1622C17.469 60.2207 20.489 54.636 24.1527 50.1674C26.3462 47.4826 28.9943 45.2676 31.3581 42.7459C33.774 40.1642 35.8582 37.3378 38.4873 34.9578C43.3755 29.1257 47.759 22.9969 49.3869 15.1407C50.026 12.0427 49.9525 9.05763 50.4124 5.97843C51.7579 -3.05029 61.0762 8.44717 62.1788 11.0755C65.2661 18.4404 66.0038 25.6817 64.9935 33.234C64.9756 33.2806 64.9442 33.3219 64.9406 33.3819C64.3678 37.0555 62.6422 41.0257 62.7364 44.7458C62.8359 48.6282 63.8004 52.4748 64.3257 56.3222C65.6372 66.0958 64.6825 72.8961 59.2323 81.0911C59.0906 81.3027 59.4752 81.603 59.6527 81.4156C65.3817 75.1954 68.5855 70.0446 67.6111 61.274C67.1656 57.2473 66.0423 52.9624 65.6533 48.8927C66.2476 49.7335 66.9603 50.482 67.7662 51.1534C69.741 51.9378 71.8287 52.499 73.7614 52.9767C78.4524 54.1385 83.285 54.8628 88.0494 55.6544C92.3235 56.3536 96.5977 57.0277 100.847 57.7878C102.579 57.9644 104.344 58.1267 106.121 58.1975C106.647 58.2504 107.192 58.3284 107.707 58.3642C108.68 58.4808 109.65 58.6072 110.621 58.7631C118.135 59.9643 124.511 62.3945 131.597 64.8391C140.141 67.782 146.854 72.8405 153.611 78.6116C155.186 79.9536 156.737 82.0521 158.761 82.5146C153.706 86.0895 148.178 88.647 141.583 88.8048C144.991 89.5999 148.853 89.063 152.176 88.4973C152.798 88.3915 153.415 88.2714 154.023 88.1379C159.018 86.449 163.691 83.7221 167.16 80.1364C171.647 75.4993 177.348 70.8038 182.83 67.4234C188.025 64.2268 193.558 60.2315 199.092 57.7098C205.518 54.7848 214.038 52.0866 221.003 54.5096C222.829 55.0537 224.564 55.8166 226.207 56.8018C228.051 61.352 227.299 64.3326 223.95 65.7489C221.365 67.1411 218.623 68.0671 216.037 69.4296C204.952 75.2474 195.08 81.5035 185.034 88.9984C180.356 92.4918 175.647 96.1841 171.617 100.419C166.802 105.47 162.889 112.944 156.898 116.664C146.339 123.22 132.577 126.138 120.345 127.699C113.107 128.617 105.17 128.869 97.8607 128.664C89.8315 128.435 82.4809 128.816 74.6247 126.584C70.0099 125.28 65.4713 123.783 60.9525 122.204Z" fill="#E8FFFF"/>
<path d="M60.9535 122.204C60.6819 122.027 60.4165 121.832 60.1341 121.674C60.1135 121.751 60.092 121.829 60.0678 121.9C59.0853 121.553 58.1038 121.232 57.1249 120.879C56.3979 120.613 55.3697 120.246 54.1963 119.798C54.2115 119.723 54.2205 119.652 54.2312 119.582C53.8323 119.458 53.4406 119.317 53.0453 119.151C53.0309 119.214 53.0166 119.278 53.0031 119.331C51.6773 118.801 50.2368 118.187 48.8411 117.508C52.1865 120.009 55.6619 122.306 59.2655 124.4C56.0124 134.613 52.9915 144.91 49.0177 154.857C48.7711 155.474 48.5237 156.094 48.2736 156.717C42.2452 154.233 36.2446 151.686 30.2951 149.018C33.3017 138.382 41.7728 105.773 27.9357 101.716C28.7936 100.265 29.6909 98.8366 30.5219 97.371C30.6769 97.5045 30.8356 97.6354 30.9844 97.7735C30.8535 97.6004 30.7236 97.4301 30.5963 97.2508C30.659 97.1442 30.7307 97.0348 30.7935 96.9254C30.1723 96.2047 29.5681 95.4777 28.9854 94.7319C28.9495 94.7857 28.9101 94.8449 28.8716 94.8986C22.7463 86.3432 17.6081 76.8161 17.5184 66.1622C17.4691 60.2207 20.4892 54.636 24.1528 50.1674C26.3464 47.4826 28.9944 45.2676 31.3582 42.7459C33.7741 40.1642 35.8582 37.3378 38.4874 34.9578C43.3756 29.1257 47.7591 22.9969 49.387 15.1407C50.0261 12.0427 49.9526 9.05763 50.4125 5.97843C51.758 -3.05029 61.0763 8.44717 62.1789 11.0755C65.2661 18.4404 66.0039 25.6817 64.9936 33.234C64.9757 33.2806 64.9443 33.3219 64.9407 33.3819C64.3679 37.0555 62.6423 41.0257 62.7364 44.7458C62.836 48.6282 63.8005 52.4748 64.3258 56.3222C65.6373 66.0958 64.6826 72.8961 59.2324 81.0911C59.0907 81.3027 59.4753 81.603 59.6528 81.4156C65.3818 75.1954 68.5856 70.0446 67.6112 61.274C67.1657 57.2473 66.0424 52.9624 65.6534 48.8927C66.2477 49.7335 66.9604 50.482 67.7662 51.1534C69.7411 51.9378 71.8288 52.499 73.7615 52.9767C78.4525 54.1385 83.285 54.8628 88.0495 55.6544C92.3236 56.3536 96.5977 57.0277 100.847 57.7878C102.579 57.9644 104.344 58.1267 106.121 58.1975C106.647 58.2504 107.192 58.3284 107.707 58.3642C108.68 58.4808 109.65 58.6072 110.621 58.7631C118.135 59.9643 124.511 62.3945 131.597 64.8391C140.141 67.782 146.854 72.8405 153.611 78.6116C155.186 79.9536 156.737 82.0521 158.761 82.5146C156.26 84.2851 153.653 85.7919 150.855 86.8954C148.866 87.3123 146.898 87.8349 144.974 88.4821C143.872 88.6479 142.748 88.7779 141.583 88.8057C142.112 88.9294 142.657 89.011 143.207 89.0746C139.742 90.3 135.838 91.5514 132.221 91.6455C123.549 91.8795 115.132 87.8232 106.643 86.4042C99.1902 85.16 91.931 85.1115 84.4845 86.319C80.2175 87.0084 75.9721 87.8904 71.6764 88.3924C68.5847 88.7492 63.6078 89.7532 60.7464 88.1388C55.557 85.2281 52.8866 79.162 48.2145 75.5602C44.1017 72.3985 37.7551 69.6358 32.4671 69.5479C20.9965 69.3642 32.7217 83.8333 36.1092 86.7368C39.5604 89.6931 43.4921 91.5308 47.5359 93.5289C51.758 95.6104 55.583 98.2064 59.3543 101.004C67.284 106.886 74.9241 111.41 84.9031 112.65C97.0056 114.156 109.217 113.36 121.336 112.414C130.464 111.703 139.737 110.922 148.162 107.019C156.664 103.077 163.669 96.9129 170.79 90.9499C180.377 82.9315 190.558 75.6301 201.384 69.3776C205.496 67.0003 209.511 64.7611 213.949 63.0552C217.273 61.7805 220.748 60.6313 223.895 58.9397C224.973 58.3642 225.739 57.7134 226.287 57.0286C228.011 61.4443 227.241 64.3586 223.952 65.7498C221.367 67.1419 218.625 68.068 216.039 69.4305C204.954 75.2483 195.082 81.5044 185.036 88.9993C180.358 92.4927 175.649 96.185 171.619 100.42C166.804 105.471 162.891 112.945 156.9 116.665C146.341 123.221 132.579 126.139 120.347 127.7C113.109 128.618 105.172 128.87 97.8626 128.665C89.8334 128.435 82.4827 128.816 74.6265 126.585C70.0109 125.28 65.4723 123.783 60.9535 122.204Z" fill="#E8FFFF"/>
<path d="M64.7202 88.1269C86.4512 78.8902 111.087 78.901 129.706 93.0796C121.564 88.4837 110.907 86.8728 102.496 85.937C89.9284 84.535 76.526 84.8245 64.255 88.5151C64.3491 88.3636 64.488 88.2228 64.7202 88.1269Z" fill="#FD55B7" fill-opacity="0.28"/>
</svg>
