<svg width="48" height="49" viewBox="0 0 48 49" fill="none" xmlns="http://www.w3.org/2000/svg">
<path d="M24 12.2502C22.9 12.2502 21.9587 11.8507 21.176 11.0517C20.3933 10.2527 20.0013 9.29112 20 8.16684C19.9987 7.04257 20.3907 6.08162 21.176 5.28401C21.9613 4.4864 22.9027 4.08623 24 4.08351C25.0973 4.08079 26.0393 4.48095 26.826 5.28401C27.6127 6.08707 28.004 7.04801 28 8.16684C27.996 9.28568 27.6047 10.2473 26.826 11.0517C26.0473 11.8561 25.1053 12.2556 24 12.2502ZM34 44.9168V34.7085H24C22.9 34.7085 21.9587 34.309 21.176 33.51C20.3933 32.7111 20.0013 31.7495 20 30.6252V18.3752C20 17.2523 20.392 16.2913 21.176 15.4923C21.96 14.6934 22.9013 14.2932 24 14.2918C24.8 14.2918 25.492 14.4708 26.076 14.8288C26.66 15.1868 27.2847 15.7564 27.95 16.5377C29.7833 18.7835 31.442 20.3236 32.926 21.158C34.41 21.9923 36.1013 22.4258 38 22.4585V26.5418C36.2333 26.5418 34.45 26.1505 32.65 25.3679C30.85 24.5852 29.3 23.6495 28 22.5606V29.6043H34C35.1 29.6043 36.042 30.0045 36.826 30.8048C37.61 31.6052 38.0013 32.5661 38 33.6877V44.9168H34ZM20 44.9168C17.2333 44.9168 14.8753 43.9212 12.926 41.9299C10.9767 39.9386 10.0013 37.5315 10 34.7085C10 32.2585 10.7587 30.0977 12.276 28.2262C13.7933 26.3547 15.7013 25.1807 18 24.7043V28.8898C16.8333 29.3661 15.8753 30.1236 15.126 31.1621C14.3767 32.2007 14.0013 33.3828 14 34.7085C14 36.4099 14.5833 37.8561 15.75 39.0471C16.9167 40.238 18.3333 40.8335 20 40.8335C21.3 40.8335 22.4587 40.451 23.476 39.6861C24.4933 38.9211 25.2347 37.9425 25.7 36.7502H29.8C29.3333 39.0981 28.1833 41.0465 26.35 42.5955C24.5167 44.1444 22.4 44.9182 20 44.9168Z" fill="#2E2A39"/>
</svg>
