<svg width="40" height="52" viewBox="0 0 40 52" fill="none" xmlns="http://www.w3.org/2000/svg">
<path d="M17.1429 30.1V0H40V5.71428H22.8572V40C22.8566 42.5157 22.026 44.9609 20.4941 46.9565C18.9622 48.952 16.8148 50.3864 14.3847 51.0371C11.9546 51.6878 9.37766 51.5185 7.05358 50.5554C4.7295 49.5924 2.78812 47.8894 1.53051 45.7106C0.272903 43.5318 -0.230661 40.9989 0.0979147 38.5047C0.426491 36.0106 1.56885 33.6945 3.34782 31.9157C5.12679 30.137 7.44298 28.9949 9.93717 28.6666C12.4314 28.3383 14.9642 28.8421 17.1429 30.1ZM11.4286 45.7143C12.9441 45.7143 14.3976 45.1122 15.4692 44.0406C16.5408 42.969 17.1429 41.5155 17.1429 40C17.1429 38.4845 16.5408 37.031 15.4692 35.9594C14.3976 34.8877 12.9441 34.2857 11.4286 34.2857C9.91306 34.2857 8.45961 34.8877 7.38798 35.9594C6.31634 37.031 5.7143 38.4845 5.7143 40C5.7143 41.5155 6.31634 42.969 7.38798 44.0406C8.45961 45.1122 9.91306 45.7143 11.4286 45.7143Z" fill="black"/>
</svg>
