<svg width="49" height="37" viewBox="0 0 49 37" fill="none" xmlns="http://www.w3.org/2000/svg">
<path d="M35.2718 29.777C35.8918 30.987 38.5618 33.887 38.1518 34.147C37.7418 34.407 33.9818 32.077 32.7718 31.757C31.5618 31.437 31.4418 31.287 31.9918 30.887C32.7118 30.357 34.6518 28.567 35.2718 29.777Z" fill="#2E2A39"/>
<path d="M38.142 34.147C37.722 34.407 33.972 32.077 32.762 31.757C31.552 31.437 31.432 31.287 31.982 30.887C32.702 30.357 34.642 28.567 35.262 29.777C35.882 30.987 38.552 33.887 38.142 34.147Z" fill="#FD55B7"/>
<path d="M46.7312 23.3072C45.0012 22.6472 38.6612 18.6972 32.1512 15.5672C25.6412 12.4372 16.3412 7.73717 16.3412 7.73717C14.2712 6.75717 4.97118 1.64717 2.33118 0.497166C-0.308816 -0.652834 -0.218816 0.327166 0.271184 2.05717C0.771184 3.78717 6.78118 10.3772 9.00118 14.0872C12.0912 18.7572 15.6212 23.1072 19.5512 27.0972C22.0212 29.4072 24.5212 34.1772 26.1412 36.3172C26.8312 37.2372 27.5412 35.8272 28.1212 35.0772C28.7012 34.3272 30.5112 32.3572 31.0812 32.3572C33.6312 33.1672 36.0912 34.2472 38.4112 35.5672C41.0412 37.0472 40.1412 36.5572 40.1412 33.8372C40.1412 31.1172 39.6512 26.9172 39.6512 26.9172C39.6512 26.9172 44.7612 26.0072 47.3912 25.5172C50.0212 25.0272 48.4612 23.9472 46.7312 23.2972M28.6112 32.3672C27.2912 33.6872 27.5112 35.5972 25.1512 32.3672C23.3512 29.8872 20.5412 25.9472 18.3912 23.4672C16.2412 20.9872 13.6112 17.5372 11.8012 15.1472C9.99118 12.7572 4.72118 6.75717 3.57118 5.10717C2.42118 3.45717 1.76118 2.79717 3.90118 4.19717C6.04118 5.59717 16.4212 14.2472 18.5612 15.7372C20.7012 17.2272 27.2112 23.3972 29.7612 25.3772C32.3112 27.3572 34.3712 27.5172 32.7312 28.9172C31.0912 30.3172 29.9312 31.0572 28.6112 32.3772M38.1412 34.1472C37.7212 34.4072 33.9712 32.0772 32.7612 31.7572C31.5512 31.4372 31.4312 31.2872 31.9812 30.8872C32.7012 30.3572 34.6412 28.5672 35.2612 29.7772C35.8812 30.9872 38.5512 33.8872 38.1412 34.1472ZM38.1812 32.0272C37.2012 30.5672 36.1112 29.1672 34.9212 27.8572C34.5912 27.3172 27.3912 21.9872 25.4312 20.0672C23.4712 18.1472 18.9712 14.9372 16.2212 12.7372C13.9112 10.8772 9.13118 6.91717 7.27118 5.43717C7.02118 5.27717 6.78118 5.09717 6.56118 4.89717C6.67118 4.96717 6.92118 5.15717 7.27118 5.43717C10.0212 7.44717 20.0112 14.5972 22.1412 16.0272C24.6812 17.7372 34.8112 25.4872 36.0112 26.2372C36.6912 26.7572 37.5412 26.9972 38.3912 26.9072C39.1812 26.9072 38.3912 28.1672 38.4712 29.3672C38.6012 31.3172 39.3512 34.0272 38.1812 32.0272ZM46.1412 24.4872C45.0612 24.7372 45.5712 24.7572 44.5212 24.9472C42.6912 25.2772 40.1012 25.7372 39.0612 25.8672C38.0212 25.9972 35.8112 25.1572 28.7712 19.8272C21.7312 14.4972 10.9012 6.90717 9.90118 6.11717C8.90118 5.32717 20.2812 11.3272 23.2712 12.6172C26.2612 13.9072 37.9812 20.2372 40.3912 21.3272C42.8012 22.4172 47.2212 24.2472 46.1412 24.4972" fill="#2E2A39"/>
<path d="M32.7218 28.9069C31.0718 30.3069 29.9218 31.0469 28.6018 32.3669C27.2818 33.6869 27.5018 35.5969 25.1418 32.3669C23.3418 29.8869 20.5318 25.9469 18.3918 23.4669C16.2518 20.9869 13.6118 17.5369 11.8018 15.1469C9.99182 12.7569 4.72182 6.75695 3.57182 5.10695C2.42182 3.45695 1.76182 2.79695 3.90182 4.19695C6.04182 5.59695 16.4218 14.2469 18.5618 15.7269C20.7018 17.2069 27.2118 23.3869 29.7618 25.3669C32.3118 27.3469 34.3718 27.5069 32.7318 28.9069" fill="#2E2A39"/>
<path d="M38.4812 29.367C38.6112 31.317 39.3612 34.027 38.1912 32.027C37.2112 30.567 36.1212 29.167 34.9312 27.857C34.6012 27.317 27.3912 21.987 25.4412 20.067C23.4912 18.147 18.9812 14.937 16.2312 12.737C13.9212 10.877 9.14125 6.91701 7.28125 5.43701C10.0312 7.44701 20.0212 14.597 22.1512 16.027C24.6912 17.737 34.8212 25.487 36.0212 26.237C36.7012 26.757 37.5513 26.997 38.4013 26.907C39.1913 26.907 38.4012 28.167 38.4812 29.367Z" fill="#2E2A39"/>
<path d="M46.1407 24.4873C45.0607 24.7373 45.5707 24.7573 44.5207 24.9473C42.6907 25.2773 40.1007 25.7373 39.0607 25.8673C38.0207 25.9973 35.8107 25.1573 28.7707 19.8273C21.7307 14.4973 10.8907 6.90728 9.90072 6.11728C8.91072 5.32728 20.2807 11.3273 23.2707 12.6173C26.2607 13.9073 37.9807 20.2373 40.3907 21.3273C42.8007 22.4173 47.2207 24.2473 46.1307 24.4973" fill="#2E2A39"/>
<path d="M32.7218 28.9069C31.0718 30.3069 29.9218 31.0469 28.6018 32.3669C27.2818 33.6869 27.5018 35.5969 25.1418 32.3669C23.3418 29.8869 20.5318 25.9469 18.3918 23.4669C16.2518 20.9869 13.6118 17.5369 11.8018 15.1469C9.99182 12.7569 4.72182 6.75695 3.57182 5.10695C2.42182 3.45695 1.76182 2.79695 3.90182 4.19695C6.04182 5.59695 16.4218 14.2469 18.5618 15.7269C20.7018 17.2069 27.2118 23.3869 29.7618 25.3669C32.3118 27.3469 34.3718 27.5069 32.7318 28.9069" fill="#E8FFFF"/>
<path d="M38.1912 32.027C37.2112 30.567 36.1212 29.167 34.9312 27.857C34.6012 27.317 27.4012 21.987 25.4412 20.067C23.4812 18.147 18.9812 14.947 16.2312 12.737C13.9212 10.877 9.14125 6.91701 7.28125 5.43701C10.0312 7.44701 20.0212 14.597 22.1512 16.027C24.6912 17.737 34.8212 25.487 36.0212 26.237C36.7012 26.757 37.5513 26.997 38.4013 26.907C39.1913 26.907 38.4012 28.167 38.4812 29.367C38.6112 31.317 39.3612 34.027 38.1912 32.027Z" fill="#FD55B7"/>
<path d="M46.1407 24.4873C45.0607 24.7373 45.5707 24.7573 44.5207 24.9473C42.6907 25.2773 40.1007 25.7373 39.0607 25.8673C38.0207 25.9973 35.8107 25.1573 28.7707 19.8273C21.7307 14.4973 10.8907 6.90728 9.90072 6.11728C8.91072 5.32728 20.2807 11.3273 23.2707 12.6173C26.2607 13.9073 37.9807 20.2373 40.3907 21.3273C42.8007 22.4173 47.2207 24.2473 46.1307 24.4973" fill="#E8FFFF"/>
<path d="M26.6606 27.817C26.6606 27.817 24.7906 27.077 24.5506 27.997C24.3106 28.877 26.6006 29.417 28.5906 29.867C28.7106 29.897 28.8006 29.817 28.7806 29.707C28.6006 28.837 27.8406 25.557 26.6906 25.807C25.3606 26.087 26.6606 27.817 26.6606 27.817Z" fill="#2E2A39"/>
<path d="M38.0012 22.3373C38.0012 22.3373 36.9512 21.1273 37.8312 20.9773C38.6812 20.8273 39.6112 22.3073 40.3912 23.5973C40.4412 23.6773 40.3712 23.7373 40.2612 23.7173C39.3512 23.5973 35.9212 23.0773 35.9812 22.3373C36.0412 21.4873 38.0112 22.3373 38.0112 22.3373" fill="#2E2A39"/>
</svg>
