<svg width="50" height="43" viewBox="0 0 50 43" fill="none" xmlns="http://www.w3.org/2000/svg">
<path d="M42.4283 34.5349C42.4283 34.5349 46.5561 32.2948 47.1822 30.5146C47.8082 28.7343 46.204 27.3942 45.1182 26.3182C44.4042 25.3792 44.1498 24.176 44.4335 23.0316C44.4335 22.9827 44.4335 22.9337 44.4531 22.8946C44.4629 22.8066 44.4824 22.7185 44.502 22.6403C44.5215 22.5425 44.5411 22.4544 44.5705 22.3664C44.5705 22.3175 44.59 22.2882 44.5998 22.2588C44.5998 22.249 44.5998 22.2392 44.5998 22.2197C44.8346 21.0165 45.0106 19.8036 45.1182 18.5809C45.128 18.3168 45.1182 18.0527 45.0595 17.7886C44.9226 17.2897 44.4237 16.9962 43.9249 17.1332C43.8857 17.1332 43.8564 17.1528 43.8173 17.1723C43.0152 17.6418 42.1739 18.0331 41.2936 18.3168C40.9121 18.395 40.5208 18.4537 40.1296 18.4733C39.8557 18.4733 39.6013 18.3559 39.4253 18.1505C39.1318 17.8766 38.9655 17.4951 38.9655 17.0941C38.9851 15.7637 39.034 14.4334 39.034 13.1129C39.0144 12.7216 38.9558 12.3206 38.8677 11.9391C38.7308 11.5576 38.3395 11.3326 37.9482 11.3815C37.5472 11.4207 37.1755 11.5674 36.8527 11.8022C36.2756 12.3499 35.6397 12.839 34.9648 13.2694C34.6029 13.4455 34.1725 13.4357 33.8204 13.2401C33.341 12.9955 32.9987 12.5553 32.8911 12.0369C32.7737 11.5185 32.7346 10.9903 32.6759 10.4621C32.6759 9.40563 32.5879 8.34921 32.402 7.30256C32.3629 7.1754 32.2846 7.0678 32.177 6.97977C31.9716 6.8037 31.6782 6.8037 31.4825 6.97977C30.9739 7.3906 30.5043 7.8699 30.0055 8.31008C29.8001 8.47637 29.5751 8.61331 29.3501 8.74047C28.7241 9.01436 27.9904 8.79917 27.609 8.23183C27.3253 7.62536 27.0514 7.03846 26.7971 6.42221C26.2493 5.20928 25.6135 4.04525 24.8896 2.93014C24.5277 2.52909 23.9604 2.42149 23.4713 2.64647C22.6985 3.17468 22.1019 3.92787 21.7595 4.79844C21.4074 5.79618 21.1237 6.82326 20.8107 7.84056C20.6444 8.34921 20.4781 8.84807 20.302 9.34694C19.989 9.95341 19.2652 10.2175 18.6293 9.96319C18.1696 9.70886 17.7392 9.39585 17.3479 9.04371C16.7806 8.47637 16.1546 7.9775 15.4796 7.55689C15.2449 7.43951 14.9808 7.38082 14.7167 7.3906C14.3058 7.35147 13.9341 7.63514 13.8657 8.03619C13.895 9.76756 13.9341 11.4891 13.9537 13.2107C13.9341 13.4748 13.9048 13.7389 13.8461 13.9933C13.6798 14.6486 13.0538 15.0986 12.3788 15.0399C11.7235 14.9225 11.0876 14.6975 10.5105 14.365C10.1779 14.1498 9.80624 14.003 9.42475 13.9248C9.16065 13.8563 8.87698 13.9639 8.73025 14.1889C8.5444 14.3747 8.44658 14.6291 8.46614 14.8932C8.64222 15.8127 8.84763 16.7126 9.04327 17.6223C9.18021 18.2679 9.2389 18.933 9.2389 19.5982C9.25846 20.6253 8.44658 21.4861 7.4195 21.5056C7.34125 21.5056 7.25321 21.5056 7.17496 21.4958C6.5098 21.4469 5.85443 21.3491 5.18927 21.31C4.52411 21.2513 3.85896 21.2219 3.1938 21.2219C2.93948 21.2611 2.69493 21.3687 2.47974 21.5154C2.27432 21.6132 2.18628 21.8578 2.2841 22.0632C2.30366 22.1121 2.33301 22.1512 2.37214 22.1806C3.15467 23.0805 3.98612 23.9413 4.78822 24.8216C4.88604 24.939 4.97407 25.0564 5.05233 25.1738C6.32395 26.6508 5.40447 27.9518 5.75661 29.556C6.10875 31.1602 8.30964 33.7132 9.90406 34.7207C9.92362 34.7207 9.9334 34.7403 9.95297 34.7598C10.3834 35.0239 10.804 35.3076 11.2344 35.5717C11.9191 35.9825 12.5842 36.4129 13.2983 36.7847C14.0124 37.1564 14.7558 37.4205 15.4307 37.8411C16.2133 38.3399 17.0838 38.6921 17.9935 38.8779C18.7663 39.0442 19.5488 39.191 20.3216 39.3768C21.2215 39.6116 22.141 39.7583 23.0702 39.8072C23.5985 39.8072 24.1267 39.8561 24.6549 39.9246C25.9754 40.1104 27.3057 40.13 28.6263 39.9833C29.5555 39.9246 30.4652 39.7485 31.3554 39.4551C34.7692 38.3595 38.0656 36.9314 41.2055 35.2098C41.2936 35.1609 41.3816 35.112 41.4697 35.0533C41.724 34.8968 42.0468 34.7598 42.3011 34.6229C42.4478 34.5446 42.6435 34.4566 42.7902 34.3783" fill="#FD55B7" fill-opacity="0.59"/>
<path d="M42.4283 34.5349C42.4283 34.5349 46.5561 32.2948 47.1822 30.5146C47.8082 28.7343 46.204 27.3942 45.1182 26.3182C44.4042 25.3792 44.1498 24.176 44.4335 23.0316C44.4335 22.9827 44.4335 22.9337 44.4531 22.8946C44.4629 22.8066 44.4824 22.7185 44.502 22.6403C44.5215 22.5425 44.5411 22.4544 44.5705 22.3664C44.5705 22.3175 44.59 22.2882 44.5998 22.2588C44.5998 22.249 44.5998 22.2392 44.5998 22.2197C44.8346 21.0165 45.0106 19.8036 45.1182 18.5809C45.128 18.3168 45.1182 18.0527 45.0595 17.7886C44.9226 17.2897 44.4237 16.9962 43.9249 17.1332C43.8857 17.1332 43.8564 17.1528 43.8173 17.1723C43.0152 17.6418 42.1739 18.0331 41.2936 18.3168C40.9121 18.395 40.5208 18.4537 40.1296 18.4733C39.8557 18.4733 39.6013 18.3559 39.4253 18.1505C39.1318 17.8766 38.9655 17.4951 38.9655 17.0941C38.9851 15.7637 39.034 14.4334 39.034 13.1129C39.0144 12.7216 38.9558 12.3206 38.8677 11.9391C38.7308 11.5576 38.3395 11.3326 37.9482 11.3815C37.5472 11.4207 37.1755 11.5674 36.8527 11.8022C36.2756 12.3499 35.6397 12.839 34.9648 13.2694C34.6029 13.4455 34.1725 13.4357 33.8204 13.2401C33.341 12.9955 32.9987 12.5553 32.8911 12.0369C32.7737 11.5185 32.7346 10.9903 32.6759 10.4621C32.6759 9.40563 32.5879 8.34921 32.402 7.30256C32.3629 7.1754 32.2846 7.0678 32.177 6.97977C31.9716 6.8037 31.6782 6.8037 31.4825 6.97977C30.9739 7.3906 30.5043 7.8699 30.0055 8.31008C29.8001 8.47637 29.5751 8.61331 29.3501 8.74047C28.7241 9.01436 27.9904 8.79917 27.609 8.23183C27.3253 7.62536 27.0514 7.03846 26.7971 6.42221C26.2493 5.20928 25.6135 4.04525 24.8896 2.93014C24.5277 2.52909 23.9604 2.42149 23.4713 2.64647C22.6985 3.17468 22.1019 3.92787 21.7595 4.79844C21.4074 5.79618 21.1237 6.82326 20.8107 7.84056C20.6444 8.34921 20.4781 8.84807 20.302 9.34694C19.989 9.95341 19.2652 10.2175 18.6293 9.96319C18.1696 9.70886 17.7392 9.39585 17.3479 9.04371C16.7806 8.47637 16.1546 7.9775 15.4796 7.55689C15.2449 7.43951 14.9808 7.38082 14.7167 7.3906C14.3058 7.35147 13.9341 7.63514 13.8657 8.03619C13.895 9.76756 13.9341 11.4891 13.9537 13.2107C13.9341 13.4748 13.9048 13.7389 13.8461 13.9933C13.6798 14.6486 13.0538 15.0986 12.3788 15.0399C11.7235 14.9225 11.0876 14.6975 10.5105 14.365C10.1779 14.1498 9.80624 14.003 9.42475 13.9248C9.16065 13.8563 8.87698 13.9639 8.73025 14.1889C8.5444 14.3747 8.44658 14.6291 8.46614 14.8932C8.64222 15.8127 8.84763 16.7126 9.04327 17.6223C9.18021 18.2679 9.2389 18.933 9.2389 19.5982C9.25846 20.6253 8.44658 21.4861 7.4195 21.5056C7.34125 21.5056 7.25321 21.5056 7.17496 21.4958C6.5098 21.4469 5.85443 21.3491 5.18927 21.31C4.52411 21.2513 3.85896 21.2219 3.1938 21.2219C2.93948 21.2611 2.69493 21.3687 2.47974 21.5154C2.27432 21.6132 2.18628 21.8578 2.2841 22.0632C2.30366 22.1121 2.33301 22.1512 2.37214 22.1806C3.15467 23.0805 3.98612 23.9413 4.78822 24.8216C4.88604 24.939 4.97407 25.0564 5.05233 25.1738C6.32395 26.6508 5.40447 27.9518 5.75661 29.556C6.10875 31.1602 8.30964 33.7132 9.90406 34.7207C9.92362 34.7207 9.9334 34.7403 9.95297 34.7598C10.3834 35.0239 10.804 35.3076 11.2344 35.5717C11.9191 35.9825 12.5842 36.4129 13.2983 36.7847C14.0124 37.1564 14.7558 37.4205 15.4307 37.8411C16.2133 38.3399 17.0838 38.6921 17.9935 38.8779C18.7663 39.0442 19.5488 39.191 20.3216 39.3768C21.2215 39.6116 22.141 39.7583 23.0702 39.8072C23.5985 39.8072 24.1267 39.8561 24.6549 39.9246C25.9754 40.1104 27.3057 40.13 28.6263 39.9833C29.5555 39.9246 30.4652 39.7485 31.3554 39.4551C34.7692 38.3595 38.0656 36.9314 41.2055 35.2098C41.2936 35.1609 41.3816 35.112 41.4697 35.0533C41.724 34.8968 42.0468 34.7598 42.3011 34.6229C42.4478 34.5446 42.6435 34.4566 42.7902 34.3783" stroke="#FD55B7" stroke-opacity="0.59"/>
<path d="M8.8679 30.0542L11.8513 32.3236L17.0063 35.4733L23.9415 37.9676L29.8497 37.5275L36.2469 35.1994L40.5313 32.2747L43.456 29.0174L43.0745 27.0708L39.9933 24.3613L34.4569 21.3779L27.1988 19.0498L22.2102 19.6954L16.7813 21.7006L11.9589 24.4689L8.71139 27.8827L8.4375 28.7533L8.8679 30.0542Z" fill="#E8FFFF"/>
<path d="M22.8155 29.4968C24.4686 29.4968 25.8087 28.2749 25.8087 26.7677C25.8087 25.2604 24.4686 24.0386 22.8155 24.0386C21.1624 24.0386 19.8223 25.2604 19.8223 26.7677C19.8223 28.2749 21.1624 29.4968 22.8155 29.4968Z" fill="white"/>
<path d="M11.9766 19.8616C11.4875 19.3236 11.4289 18.5117 11.8495 17.915C12.3679 17.3966 13.17 17.3379 13.7667 17.7585C14.5688 18.5802 14.6373 19.2257 13.8841 20.0278C13.3069 20.4974 12.4657 20.4191 11.9766 19.8616Z" fill="#C6C6C6"/>
<path d="M17.2491 16.9761C16.5546 15.8513 15.9775 14.6481 15.5275 13.396C15.4102 13.0146 15.3808 12.6135 15.4395 12.2222C15.4591 11.9581 15.6156 11.7136 15.8503 11.5766C16.3199 11.3125 16.897 11.3223 17.3469 11.6158C17.4643 11.6842 17.5621 11.7723 17.6404 11.8799C18.061 12.5548 18.3642 13.2982 18.5501 14.071C18.7457 14.9807 18.912 15.8904 19.0783 16.8001C19.1272 17.0642 19.0783 17.3283 18.9316 17.5435C18.7164 17.7098 18.4425 17.7587 18.1784 17.6804C17.7871 17.5728 17.4545 17.3185 17.2491 16.9664" fill="#C6C6C6"/>
<path d="M23.5096 16.2912C23.0889 15.4696 22.815 14.5696 22.7172 13.6502C22.5999 12.2025 22.5118 10.745 22.4531 9.2973C22.4629 8.89625 22.6194 8.51476 22.8933 8.21153C23.2846 7.83004 23.8813 7.78113 24.3312 8.09415C24.6442 8.33869 24.8986 8.64192 25.0746 9.00385C25.4855 9.84507 25.6615 10.7743 25.5931 11.7036C25.4757 12.8872 25.3876 14.0708 25.2507 15.2544C25.1724 15.6065 25.0551 15.9489 24.8986 16.2717C24.7225 16.5162 24.4486 16.6727 24.1454 16.6825C23.8813 16.6825 23.6269 16.5455 23.5096 16.301" fill="#C6C6C6"/>
<path d="M28.5964 16.4871C28.5377 16.2328 28.4986 15.9784 28.479 15.7143C28.4497 15.46 28.4497 15.1959 28.479 14.9416C28.5769 13.9047 28.6747 12.8776 28.7921 11.8408C28.9388 11.1854 29.5257 10.7257 30.1908 10.7452C30.7288 10.7452 31.1788 11.1561 31.2179 11.6941C31.2473 12.0853 31.2277 12.4766 31.169 12.8581C30.9343 14.0025 30.6017 15.1274 30.1713 16.2132C30.0441 16.4382 29.8974 16.6534 29.7213 16.849C29.5648 17.0642 29.2909 17.162 29.0366 17.0838C28.7921 16.9762 28.6258 16.761 28.5866 16.4969" fill="#C6C6C6"/>
<path d="M34.0846 17.2792C34.0356 16.8097 34.2019 16.35 34.5541 16.0272C34.7888 15.812 35.0921 15.7044 35.4051 15.7239C35.8061 15.7533 36.1876 15.9294 36.4713 16.2228C36.5398 16.3402 36.5985 16.4576 36.6376 16.575C36.7745 17.0249 36.6669 17.5042 36.3539 17.8466C35.9724 18.3357 35.3073 18.4922 34.7399 18.2378C34.4073 18.0129 34.1726 17.6705 34.0846 17.2792Z" fill="#C6C6C6"/>
<path d="M40.7539 21.2507C40.7539 20.8692 41.0376 20.5366 41.4191 20.4584C41.9081 20.3899 42.2896 20.5268 42.3972 20.8007C42.5537 21.1431 42.544 21.5441 42.3581 21.8865C42.2994 21.9941 42.1723 22.0528 42.0744 22.1213C41.5951 22.3267 41.0376 22.0919 40.8322 21.6126C40.7832 21.4952 40.7637 21.3681 40.7637 21.2409" fill="#C6C6C6"/>
<path d="M25.5931 11.6938C25.4757 12.8774 25.3876 14.061 25.2507 15.2446C25.1724 15.5967 25.0551 15.9391 24.8986 16.2619C24.7225 16.5064 24.4486 16.6629 24.1454 16.6727C23.8813 16.6727 23.6367 16.5358 23.5096 16.2912C23.0889 15.4695 22.815 14.5696 22.7172 13.6501C22.5999 12.2025 22.5118 10.745 22.4531 9.29728C22.4629 8.89623 22.6194 8.51474 22.8933 8.22129C23.2846 7.83981 23.8813 7.7909 24.3312 8.10391C24.6442 8.34845 24.8986 8.65169 25.0746 9.01361C25.4855 9.85484 25.6615 10.7841 25.5931 11.7134" fill="#2E2A39"/>
<path d="M18.9316 17.5435C18.7164 17.7098 18.4327 17.7587 18.1784 17.6804C17.7871 17.5729 17.4545 17.3185 17.2491 16.9664C16.5546 15.8415 15.9775 14.6383 15.5275 13.3863C15.4102 13.0048 15.3808 12.6037 15.4395 12.2125C15.4591 11.9484 15.6156 11.7038 15.8503 11.5669C16.3199 11.3028 16.897 11.3126 17.3469 11.606C17.4643 11.6745 17.5621 11.7625 17.6404 11.8701C18.061 12.545 18.3642 13.2885 18.5501 14.0612C18.7457 14.9709 18.912 15.8806 19.0783 16.7903C19.1272 17.0544 19.0783 17.3185 18.9316 17.5337" fill="#2E2A39"/>
<path d="M31.1593 12.858C30.9245 14.0025 30.5919 15.1274 30.1615 16.2132C30.0344 16.4382 29.8876 16.6534 29.7116 16.849C29.5551 17.0642 29.2812 17.162 29.0268 17.0837C28.7823 16.9762 28.616 16.761 28.5769 16.4968C28.5182 16.2425 28.4791 15.9882 28.4595 15.7241C28.4302 15.4698 28.4302 15.2057 28.4595 14.9513C28.5573 13.9145 28.6551 12.8874 28.7725 11.8603C28.9193 11.2049 29.5062 10.7452 30.1713 10.7648C30.7093 10.7648 31.1593 11.1756 31.1984 11.7136C31.2277 12.1049 31.2082 12.4961 31.1495 12.8776" fill="#2E2A39"/>
<path d="M36.3539 17.8466C35.9724 18.3357 35.3073 18.4922 34.7399 18.2378C34.4073 18.0129 34.1726 17.6705 34.0846 17.2792C34.0356 16.8097 34.2019 16.35 34.5541 16.0272C34.7888 15.812 35.0921 15.7044 35.4051 15.7239C35.8061 15.7533 36.1876 15.9294 36.4713 16.2228C36.5398 16.3402 36.5985 16.4576 36.6376 16.575C36.7745 17.0249 36.6669 17.5042 36.3539 17.8466Z" fill="#2E2A39"/>
<path d="M13.8841 20.0278C13.3069 20.4974 12.4657 20.4191 11.9766 19.8616C11.4875 19.3236 11.4289 18.5117 11.8495 17.915C12.3679 17.3966 13.17 17.3379 13.7667 17.7585C14.5688 18.5802 14.6373 19.2257 13.8841 20.0278Z" fill="#2E2A39"/>
<path d="M42.3581 21.8963C42.2994 22.0039 42.1722 22.0626 42.0744 22.131C41.5951 22.3267 41.0376 22.1017 40.8321 21.6126C40.7832 21.4952 40.7637 21.3681 40.7637 21.2507C40.7637 20.8594 41.0473 20.5366 41.4288 20.4584C41.9179 20.3899 42.2896 20.5268 42.407 20.8007C42.5635 21.1431 42.5537 21.5441 42.3679 21.8865" fill="#2E2A39"/>
<path d="M8.8866 24.606C8.42686 24.9679 7.77149 24.8897 7.40956 24.4299C7.24328 24.2245 7.16502 23.9506 7.18458 23.6865C7.15524 23.217 7.50738 22.816 7.96712 22.7866C8.05516 22.7866 8.13341 22.7866 8.22145 22.8062C8.69097 22.8942 9.08224 23.2268 9.22896 23.6768C9.35613 24.0289 9.2094 24.4202 8.8866 24.5962" fill="#2E2A39"/>
<path d="M31.8623 26.2298C31.833 26.1027 31.7841 25.9755 31.7254 25.8581C31.158 24.968 30.5907 24.0779 29.994 23.1975C29.8375 22.9823 29.6321 22.8062 29.3875 22.6986C28.5659 22.2878 27.7247 21.8965 27.0204 21.564C25.5238 21.2999 23.9783 21.4955 22.599 22.1313C22.2371 22.2976 21.9045 22.503 21.5915 22.7573C21.0927 23.1975 20.6427 23.6768 20.1732 24.1561C19.5374 24.8408 19.1167 25.6918 18.9602 26.6113C18.7842 27.3841 18.745 28.1862 18.8526 28.9687C19.0385 30.1523 19.5667 31.2674 20.3786 32.1478C20.9068 32.7445 21.4741 33.302 22.0806 33.8205C22.6088 34.2215 23.2055 34.515 23.8511 34.7008C25.2597 35.1116 26.766 35.0334 28.1355 34.4856C28.5072 34.3584 28.8593 34.1726 29.1821 33.9476C29.7201 33.5466 30.2092 33.1064 30.6592 32.6173C31.2656 31.913 31.696 31.0718 31.9014 30.1621C32.1851 28.8611 32.1753 27.521 31.8623 26.2298ZM24.5554 28.2449C24.4967 28.3623 24.4087 28.4503 24.3011 28.5285C23.45 29.1546 22.3154 29.2328 21.3959 28.7242C21.2785 28.6655 21.1807 28.5872 21.1024 28.4796C20.7503 27.9319 20.6329 27.2765 20.7601 26.6407C20.809 26.2494 21.034 25.907 21.3665 25.6918C21.5817 25.5549 21.8067 25.4277 22.0415 25.3201C22.7751 25.0169 23.6163 25.2028 24.1543 25.7897C24.2521 25.8875 24.3206 25.9853 24.4087 26.0831C24.9075 26.6994 24.9662 27.5699 24.5652 28.2449" fill="#2E2A39"/>
<path d="M42.6531 25.8185C42.5945 25.7696 42.5455 25.7207 42.4869 25.6718C42.2423 25.4664 41.9978 25.261 41.763 25.0556C41.0783 24.4198 40.2958 23.9013 39.4545 23.5198C39.21 23.422 38.9752 23.2851 38.76 23.1286C37.5667 22.2873 36.3048 21.5537 34.9843 20.9179C34.1822 20.4582 33.3312 20.0962 32.4508 19.8126C32.0693 19.6952 31.6878 19.6071 31.3064 19.48C28.3718 18.5703 25.2417 18.4823 22.2583 19.2159C19.1379 19.8908 16.1838 21.182 13.5721 23.0112C13.1319 23.3242 12.6624 23.5687 12.232 23.8818C11.6842 24.2535 11.1658 24.6643 10.6767 25.1045C10.2365 25.5349 9.78658 25.975 9.35619 26.425L9.33662 26.4446C9.28772 26.4935 9.1899 26.5815 9.06274 26.7282C8.95514 26.8261 8.84754 26.9532 8.72038 27.0804C8.66169 27.1488 8.603 27.2075 8.54431 27.2564C7.50744 28.4694 8.00631 29.6823 9.75724 31.1887C9.7768 31.1887 9.79636 31.218 9.81593 31.2278C9.86484 31.267 9.90396 31.3061 9.95287 31.3452C10.0018 31.3843 10.0507 31.4039 10.0898 31.4528C10.2855 31.5995 10.4811 31.7658 10.6767 31.9223C11.3125 32.4505 11.9777 32.9494 12.6624 33.4189C13.6699 34.0547 14.7263 34.6025 15.6947 35.3264C16.0175 35.5611 16.3599 35.7665 16.7316 35.9133C17.9445 36.4219 19.1183 37.0479 20.3508 37.5468C21.9453 38.2218 23.6571 38.5445 25.3884 38.4956C29.7511 38.3196 30.3282 38.2511 35.0136 36.3339C35.8646 35.972 36.6961 35.5416 37.4884 35.0623C38.2807 34.5927 38.9948 33.9863 39.8067 33.5363C40.4425 33.1744 41.0392 32.7538 41.5869 32.2745C41.6358 32.2353 41.6848 32.1864 41.7337 32.1375C41.8413 32.0593 41.9391 31.9712 42.0369 31.8832C42.1445 31.7854 42.2521 31.6973 42.3793 31.5897C42.3988 31.5897 42.4086 31.5604 42.4282 31.5506C45.2355 29.2617 44.0519 27.0804 42.6434 25.8088M42.3303 29.5552C41.9782 29.9366 41.6358 30.3181 41.2739 30.6996L41.2446 30.729C41.0685 30.9246 40.8533 31.0909 40.6772 31.2865C40.149 31.8832 39.5132 32.3821 38.8089 32.744C38.4568 32.9201 38.1144 33.1353 37.8112 33.3896C36.8624 34.1232 35.8157 34.7199 34.7104 35.1503C32.265 36.1872 29.6728 36.8621 27.0317 37.1555C26.9046 37.1751 26.7676 37.1849 26.6307 37.1751C25.3004 37.1751 23.9799 37.0186 22.6887 36.7251C21.6616 36.4513 20.6541 36.1382 19.6368 35.8546C18.1206 35.3557 16.6631 34.7003 15.2741 33.9178C15.0394 33.8004 14.8144 33.6537 14.609 33.4874C13.8656 32.9201 13.1613 32.3038 12.3885 31.7854C11.8505 31.4137 11.2832 31.1007 10.7158 30.7681C10.4811 30.6311 10.2463 30.4942 10.0116 30.3377C9.69855 30.1029 9.4051 29.8388 9.13121 29.5552C8.69103 29.0269 8.76928 28.2346 9.2975 27.7944C9.57138 27.6184 9.83549 27.4325 10.0898 27.2271C10.7843 26.7087 11.4495 26.1511 12.1244 25.6033C13.8558 24.1556 15.7632 22.9329 17.788 21.9352C18.2673 21.7102 18.7662 21.5244 19.2259 21.2603C19.8031 20.9277 20.4193 20.6734 21.0649 20.5071C21.7007 20.3212 22.3365 20.1256 22.9919 19.9984C24.9385 19.5485 26.9633 19.5778 28.9001 20.0767C30.9542 20.6147 32.9595 21.3287 34.8865 22.2091C36.207 22.8351 37.4101 23.6666 38.7209 24.3122C39.1806 24.5763 39.6012 24.8893 39.9827 25.261C40.5012 25.7207 41.0196 26.1805 41.5282 26.6402C41.8021 26.8945 42.076 27.1488 42.3499 27.3934C42.927 27.9999 42.9173 28.9487 42.3303 29.5356" fill="#2E2A39"/>
<path d="M42.5058 34.5245C42.5058 34.5245 46.6337 32.2845 47.2597 30.5042C47.8858 28.724 46.2816 27.3839 45.1958 26.3079C44.4817 25.3688 44.2274 24.1657 44.5111 23.0212C44.5111 22.9723 44.5111 22.9234 44.5306 22.8843C44.5404 22.7963 44.56 22.7082 44.5795 22.63C44.5991 22.5321 44.6187 22.4441 44.648 22.3561C44.648 22.3072 44.6676 22.2778 44.6774 22.2485C44.6774 22.2387 44.6774 22.2289 44.6774 22.2093C44.9121 21.0062 45.0882 19.7933 45.1958 18.5706C45.2056 18.3064 45.1958 18.0423 45.1371 17.7782C45.0002 17.2794 44.5013 16.9859 44.0024 17.1229C43.9633 17.1229 43.934 17.1424 43.8948 17.162C43.0927 17.6315 42.2515 18.0228 41.3711 18.3064C40.9897 18.3847 40.5984 18.4434 40.2071 18.463C39.9332 18.463 39.6789 18.3456 39.5028 18.1402C39.2094 17.8663 39.0431 17.4848 39.0431 17.0837C39.0627 15.7534 39.1116 14.4231 39.1116 13.1026C39.092 12.7113 39.0333 12.3103 38.9453 11.9288C38.8083 11.5473 38.4171 11.3223 38.0258 11.3712C37.6247 11.4103 37.253 11.5571 36.9302 11.7918C36.3531 12.3396 35.7173 12.8287 35.0424 13.2591C34.6805 13.4351 34.2501 13.4254 33.8979 13.2297C33.4186 12.9852 33.0763 12.545 32.9687 12.0266C32.8513 11.5082 32.8121 10.9799 32.7535 10.4517C32.7535 9.3953 32.6654 8.33888 32.4796 7.29223C32.4404 7.16507 32.3622 7.05747 32.2546 6.96944C32.0492 6.79336 31.7557 6.79336 31.5601 6.96944C31.0514 7.38027 30.5819 7.85957 30.0831 8.29975C29.8776 8.46604 29.6527 8.60298 29.4277 8.73014C28.8016 9.00403 28.068 8.78883 27.6865 8.22149C27.4029 7.61503 27.129 7.02813 26.8746 6.41188C26.3269 5.19895 25.6911 4.03492 24.9672 2.91981C24.6053 2.51876 24.038 2.41116 23.5489 2.63614C22.7761 3.16435 22.1794 3.91754 21.8371 4.78811C21.4849 5.78585 21.2013 6.81293 20.8882 7.83023C20.7219 8.33888 20.5557 8.83774 20.3796 9.33661C20.0666 9.94308 19.3427 10.2072 18.7069 9.95286C18.2472 9.69853 17.8168 9.38552 17.4255 9.03338C16.8582 8.46604 16.2321 7.96717 15.5572 7.54656C15.3224 7.42918 15.0583 7.37049 14.7942 7.38027C14.3834 7.34114 14.0117 7.62481 13.9432 8.02586C13.9726 9.75722 14.0117 11.4788 14.0313 13.2004C14.0117 13.4645 13.9823 13.7286 13.9237 13.9829C13.7574 14.6383 13.1313 15.0883 12.4564 15.0296C11.801 14.9122 11.1652 14.6872 10.5881 14.3546C10.2555 14.1394 9.88381 13.9927 9.50232 13.9145C9.23821 13.846 8.95455 13.9536 8.80782 14.1786C8.62197 14.3644 8.52415 14.6187 8.54371 14.8828C8.71978 15.8023 8.9252 16.7022 9.12083 17.6119C9.25778 18.2575 9.31647 18.9227 9.31647 19.5878C9.33603 20.6149 8.52415 21.4757 7.49707 21.4953C7.41882 21.4953 7.33078 21.4953 7.25253 21.4855C6.58737 21.4366 5.932 21.3388 5.26684 21.2996C4.60168 21.241 3.93653 21.2116 3.27137 21.2116C3.01704 21.2507 2.7725 21.3583 2.5573 21.5051C2.35189 21.6029 2.26385 21.8474 2.36167 22.0528C2.38123 22.1017 2.41058 22.1409 2.44971 22.1702C3.23224 23.0701 4.06369 23.9309 4.86579 24.8113C4.96361 24.9287 5.05164 25.046 5.1299 25.1634C6.40152 26.6405 5.48204 27.9414 5.83418 29.5456C6.18632 31.1498 8.38721 33.7029 9.98163 34.7104C10.0012 34.7104 10.011 34.7299 10.0305 34.7495C10.4609 35.0136 10.8815 35.2973 11.3119 35.5614C11.9967 35.9722 12.6618 36.4026 13.3759 36.7743C14.0899 37.146 14.8334 37.4101 15.5083 37.8307C16.2908 38.3296 17.1614 38.6818 18.0711 38.8676C18.8439 39.0339 19.6264 39.1806 20.3992 39.3665C21.2991 39.6012 22.2186 39.748 23.1478 39.7969C23.676 39.7969 24.2042 39.8458 24.7325 39.9142C26.053 40.1001 27.3833 40.1197 28.7038 39.9729C29.6331 39.9143 30.5428 39.7382 31.4329 39.4447C34.8467 38.3492 38.1432 36.921 41.2831 35.1995C41.3711 35.1506 41.4592 35.1016 41.5472 35.043C41.8015 34.8864 42.1243 34.7495 42.3787 34.6126C42.5254 34.5343 42.721 34.4463 42.8677 34.368C43.3079 34.1333 44.8828 33.4779 45.2741 33.6344H45.2936C45.9196 33.967 45.7142 34.368 45.2643 34.7299C44.9023 35.0136 44.3839 35.2582 43.9829 35.4342C43.9633 35.4342 43.9535 35.4342 43.934 35.4538C43.8459 35.4734 43.7579 35.5027 43.6698 35.5418C43.6112 35.5614 43.5525 35.5907 43.5036 35.6299C43.484 35.6396 43.4547 35.6592 43.4253 35.669H43.4057C43.1319 35.7961 42.8677 35.9429 42.6134 36.0994C42.183 36.4124 41.7429 36.6961 41.2831 36.9602C39.2387 37.8797 37.2628 38.985 35.15 39.7773C35.15 39.7773 25.9063 45.8224 13.4541 38.6035C13.2194 38.4666 12.9846 38.3492 12.7401 38.2514C11.7423 37.8992 10.8131 37.3417 10.0305 36.6276C9.9425 36.5493 9.86425 36.4711 9.76643 36.3928C9.76643 36.3928 9.68817 36.3341 9.57079 36.2363C9.48276 36.1581 9.38494 36.07 9.25778 35.9624H9.248C9.15996 35.8842 9.08171 35.8157 9.00345 35.7277C8.90564 35.6592 8.8176 35.5712 8.73935 35.4734C8.62197 35.356 8.51437 35.2386 8.40677 35.131C7.15471 34.0159 6.02003 32.7736 5.0223 31.4335C4.06369 29.7119 4.44518 28.6848 4.3767 27.3545C4.27889 25.6525 2.35189 24.4787 1.96062 24.0777C1.37372 23.5397 0.835722 22.943 0.356418 22.3072C0.0825303 21.8572 -0.044632 21.329 0.0140583 20.8008C0.180347 20.1454 0.669433 19.6172 1.31503 19.4216C1.70629 19.3433 2.09756 19.3042 2.49861 19.3042C3.29093 19.3433 4.08325 19.4607 4.87557 19.5292C5.40378 19.5683 5.932 19.5781 6.46021 19.5878C7.00798 19.5292 7.41882 19.0792 7.41882 18.5314C7.18406 17.0935 6.87104 15.6752 6.47977 14.2666C6.36239 13.7482 6.32326 13.2102 6.38195 12.682C6.46021 12.0559 7.20362 11.3516 7.70249 11.3908C8.2307 11.3908 8.75891 11.4984 9.25778 11.694C9.73708 11.919 10.1968 12.1831 10.6957 12.3787C10.95 12.457 11.2141 12.5059 11.4782 12.5254C11.8891 12.5841 12.2608 12.3005 12.3292 11.8896C12.2999 10.5691 12.2705 9.23879 12.2608 7.91826C12.2608 7.38027 12.4173 6.86184 12.6912 6.4021C13.2683 5.34567 14.5888 4.96418 15.6452 5.54131C15.6941 5.57065 15.7431 5.59021 15.7822 5.62934C16.2321 5.92279 16.6528 6.24559 17.0734 6.54882C17.3962 6.78358 17.719 7.01834 18.0418 7.25311C18.4526 7.52699 19.0101 7.40961 19.284 6.99878C19.3134 6.95965 19.3329 6.91075 19.3623 6.86184C19.5286 6.36297 19.734 5.8641 19.8709 5.35545C20.2329 4.21099 20.7219 3.12522 21.3382 2.09814C21.6219 1.64818 21.9642 1.23735 22.3457 0.875427C22.8935 0.278743 23.676 -0.0440538 24.4879 0.00485473C24.752 0.0244182 25.0161 0.112454 25.2313 0.259179C25.6715 0.552631 26.0432 0.953681 26.2975 1.4232C27.0801 2.81221 27.8528 4.19143 28.5278 5.63912C28.831 6.08908 29.4375 6.22603 29.8972 5.94236C30.132 5.81519 30.3569 5.67825 30.5819 5.53152C31.0221 5.23807 31.4525 4.92506 31.9024 4.64139C32.6752 4.23056 33.6338 4.52401 34.0446 5.29676C34.0838 5.37502 34.1229 5.46305 34.1522 5.54131C34.3674 6.16734 34.5044 6.82271 34.5631 7.47808C34.5435 8.40735 34.6413 9.33661 34.8272 10.2365C34.9543 10.5789 35.3358 10.7452 35.6782 10.618C35.7075 10.6082 35.7271 10.5985 35.7564 10.5789C35.8738 10.5104 35.9814 10.4322 36.089 10.3539C36.2944 10.1974 36.4999 10.0213 36.7151 9.86482C37.3704 9.38552 38.2117 9.22901 38.9942 9.45399C39.2485 9.52246 39.5028 9.60072 39.7572 9.67897C40.0115 9.76701 40.2267 9.93329 40.3636 10.1681C40.8918 11.0973 41.1364 12.1635 41.0875 13.2297C40.9701 14.0123 40.9016 14.8046 40.8625 15.5969C40.9408 15.9882 41.3027 16.2621 41.7037 16.2425C41.9678 16.2132 42.2222 16.1447 42.4765 16.0469C42.9558 15.8317 43.4057 15.5284 43.885 15.3132C44.3741 15.1078 44.9219 15.0589 45.4501 15.1861C45.8512 15.2154 46.2033 15.4502 46.3989 15.8023C46.7609 16.5164 46.9663 17.2989 46.9956 18.101C47.0348 19.0303 46.9761 19.9596 46.8 20.8693C46.7022 21.2801 46.6141 21.7105 46.5359 22.1311C46.5163 22.2387 46.4968 22.3267 46.4772 22.4343C46.4479 22.5517 46.4185 22.6887 46.3989 22.806C46.3794 22.9234 46.3696 23.0506 46.3794 23.168C46.262 24.3907 46.6044 24.6156 47.4554 25.3102C48.2281 25.946 50.0573 28.2544 49.9986 28.9392C49.9399 29.6239 48.5901 31.8248 47.3673 33.1062C46.1446 34.3876 44.3252 35.2973 44.3252 35.2973L42.5841 34.5539L42.5058 34.5245Z" fill="#2E2A39"/>
<path d="M46.3888 22.395C46.3399 22.6396 46.3106 22.8841 46.291 23.1286C46.291 23.0113 46.291 22.8841 46.3106 22.7667C46.3301 22.6493 46.3595 22.5124 46.3888 22.395Z" fill="#2E2A39"/>
</svg>
