<svg width="266" height="74" viewBox="0 0 266 74" fill="none" xmlns="http://www.w3.org/2000/svg">
<path d="M105.506 0.106881C98.2304 0.873443 90.9552 3.75323 83.0773 9.03629C78.6706 11.9782 74.7212 15.0859 66.3652 22.1714C57.5102 29.6713 53.3946 32.7376 47.9694 35.7831C41.7127 39.3259 37.0566 41.2319 31.5898 42.5164C29.5112 42.9929 28.7006 43.0758 26.1439 43.0758C23.5664 43.0758 22.9428 43.0136 21.9035 42.62C20.0535 41.9363 19.0558 41.2733 17.767 39.8852C15.7508 37.7306 14.6491 34.7058 14.6283 31.3909C14.6075 28.9876 15.1064 27.7031 16.5198 26.3979C18.162 24.9062 19.7417 24.3261 25.7281 23.0416C28.4719 22.4615 29.8646 21.8814 30.8415 20.8869C32.1511 19.5817 31.6938 18.8773 28.6798 17.6135C25.3956 16.2461 22.5478 15.8525 19.4923 16.3497C13.5058 17.3235 8.80816 20.369 4.96272 25.7142C-0.316979 33.0898 -1.41865 41.2941 1.824 48.8354C7.95593 63.0686 31.0494 72.4538 63.4759 73.8833C80.479 74.6292 101.91 71.7286 112.905 67.2121C116.917 65.5754 119.079 64.2702 123.964 60.5617C125.543 59.3601 128.807 57.7441 130.387 57.3919C132.133 56.9775 134.378 56.9154 135.043 57.2676C135.313 57.4126 136.332 58.117 137.329 58.8421C154.083 71.045 189.898 76.8045 220.911 72.288C234.713 70.2784 246.228 66.2591 254.168 60.6446C256.621 58.925 260.363 55.2165 261.818 53.1033C266.744 45.9141 267.326 38.3314 263.522 30.7694C261.527 26.8122 258.139 22.7308 254.605 20.0789C252.589 18.5458 248.868 16.6605 246.997 16.184C242.965 15.1688 239.452 15.8525 236.874 18.1315C235.793 19.0845 234.629 20.7005 234.629 21.2806C234.629 22.1093 237.332 22.9587 243.484 24.1189C246.935 24.7612 248.473 25.3413 249.762 26.5015C251.84 28.3868 252.235 31.7638 250.718 34.7679C250.094 35.9696 247.725 38.4971 245.709 40.1131C241.385 43.5316 236.417 44.2774 230.576 42.33C228.56 41.667 224.86 39.8024 222.761 38.3936C220.287 36.7361 212.076 30.5208 201.787 22.5029C197.381 19.0638 192.309 15.2102 190.521 13.9257C179.858 6.36369 171.169 2.30298 162.19 0.7077C159.861 0.293342 158.822 0.231188 154.707 0.231188C151.069 0.231188 149.448 0.31406 147.951 0.60411C143.17 1.47426 138.576 2.96595 134.253 5.01702C131.093 6.52943 130.802 6.52943 127.996 5.01702C123.777 2.75877 118.268 0.914879 114.028 0.334777C111.658 0.0032911 107.563 -0.100298 105.506 0.106881Z" fill="#E8FFFF"/>
</svg>
