<svg width="100" height="14" viewBox="0 0 100 14" fill="none" xmlns="http://www.w3.org/2000/svg">
<path d="M60.4792 3.8875C59.4583 3.8875 58.4708 4.08334 57.4958 4.42917L57.175 6.30417C58.0792 5.87084 59.05 5.60417 60.05 5.60417C60.8542 5.60417 61.8083 5.86667 61.8083 6.77917C61.8083 7.04167 61.8083 7.30417 61.7417 7.55H60.9417C58.7917 7.55 55.5542 7.77917 55.5542 10.7583C55.5542 12.425 56.6792 13.3333 58.2625 13.3333C59.525 13.3333 60.3083 12.7542 61.0958 11.7375H61.1292L60.8875 13.125H62.8167C63.0208 11.425 63.8875 7.88333 63.8875 6.675C63.8875 4.55417 62.2375 3.8875 60.4792 3.8875ZM58.8958 11.6167C58.3125 11.6167 57.7375 11.3 57.7375 10.6708C57.7375 9.14584 59.5792 8.95417 60.6833 8.95417H61.4833C61.1292 10.4083 60.6 11.6167 58.8958 11.6167ZM22.8667 8.35417L25.6 13.3333H22.9333L20.5917 8.47917H20.5542L19.5333 13.3333H17.2208L20.0292 0H22.3875L20.8208 7.5H20.8542L24.1542 4.17917H27.2208L22.8667 8.35417ZM38.7292 11.4625C39.125 11.4625 39.5208 11.375 39.7958 11.25L39.4208 13.1167C39.0417 13.2083 38.6125 13.3333 38.2375 13.3333C36.7417 13.3333 35.6917 12.6875 35.6917 10.9083C35.6917 10.1875 35.8208 9.4875 35.9708 8.75L36.5958 5.625H35L35.3458 3.8625H36.9375L37.3125 1.95417L39.6833 1.1125L39.1417 3.8625H41.1125L40.7667 5.62083H38.7917L37.9875 9.66667C37.9216 9.96215 37.888 10.2639 37.8875 10.5667C37.8875 11.1208 38.2333 11.4625 38.7208 11.4625M3.72083 11.4625C4.11667 11.4625 4.5125 11.375 4.7875 11.25L4.4125 13.1167C4.03333 13.2083 3.60417 13.3333 3.22917 13.3333C1.73333 13.3333 0.683333 12.6875 0.683333 10.9083C0.683333 10.1875 0.8125 9.4875 0.9625 8.75L1.5875 5.625H0L0.345833 3.8625H1.9375L2.31667 1.95417L4.68333 1.1125L4.14167 3.8625H6.1125L5.76667 5.62083H3.79167L2.9875 9.66667C2.92157 9.96215 2.88804 10.2639 2.8875 10.5667C2.8875 11.1208 3.23333 11.4625 3.72083 11.4625ZM12.4792 9.1625C12.4792 10.3375 12.8667 11.5083 14.5 11.5083C15.0875 11.5083 15.8167 11.3542 16.4375 11.0542L16.1708 12.9125C15.449 13.2254 14.6651 13.3694 13.8792 13.3333C11.5167 13.3333 9.99167 11.775 9.99167 9.44167C9.99167 6.2875 12.1042 3.8875 15.3917 3.8875C16.2792 3.8875 17.1292 4.04583 17.7667 4.2375L17.1833 6.16667C16.6558 5.85698 16.0533 5.69842 15.4417 5.70834C13.5417 5.70834 12.4792 7.4625 12.4792 9.16667M10.5708 2.32083H8.02917L8.5625 0.00416835H11.1042L10.5708 2.32083ZM10.175 4.02083L8.09167 13.3375H5.55L7.63333 4.02083H10.175ZM86.6583 7.32917C86.6583 8.0125 86.575 8.675 86.4458 9.34167H81.225C81.2292 8.9125 81.2667 8.4375 81.4583 7.72917H84.4917C84.5234 7.52651 84.5401 7.32179 84.5417 7.11667C84.5417 6.15417 84.0625 5.60834 83.1375 5.60834C81.8333 5.60834 81.2292 6.4 80.8042 7.55C80.5743 8.11987 80.4514 8.72725 80.4417 9.34167V9.41667C80.4417 9.5 80.4458 9.58334 80.4542 9.66667C80.5625 11.0833 81.3875 11.6208 82.8083 11.6208C83.7167 11.6208 84.5917 11.375 85.4167 10.9708L85.1375 12.8292C84.2655 13.1341 83.3524 13.3055 82.4292 13.3375C79.9792 13.3375 78.325 12.075 78.325 9.39583C78.325 6.59167 80.375 3.89584 83.1708 3.89584C85.2708 3.89584 86.6583 5.02917 86.6583 7.32917ZM94.0458 3.89167C94.3625 3.89167 94.6958 3.90834 94.9917 3.98334L94.4708 6.32917C94.164 6.23673 93.8454 6.18902 93.525 6.1875C91.7625 6.1875 90.9083 7.70834 90.5917 9.19584L89.7 13.3375H87.2125L88.9208 5.34583L89.1458 4.10833H91.5208L91.1875 5.84584H91.225C91.6708 4.84584 92.8917 3.89167 94.0458 3.89167ZM98.8083 4.9875C98.8111 4.49861 98.5139 4.25417 97.9167 4.25417H96.9208V6.8625H97.3458V5.70834H97.7L98.4292 6.8625H98.8792L98.1375 5.70834C98.5458 5.70834 98.8083 5.40834 98.8083 4.9875ZM97.3458 5.375V4.58334H97.8458C98.1208 4.58334 98.3875 4.66667 98.3875 4.96667C98.3875 5.3 98.175 5.37084 97.8458 5.37084L97.3458 5.375ZM54.9917 6.41667C54.9917 7.24167 54.7833 8.175 54.5958 8.92917L53.6667 13.3333H51.35L52.2833 8.83334C52.4083 8.27917 52.575 7.41667 52.575 6.8625C52.5807 6.71754 52.5567 6.57295 52.5046 6.43756C52.4525 6.30218 52.3734 6.17884 52.272 6.0751C52.1705 5.97135 52.0491 5.88939 51.9149 5.83421C51.7807 5.77903 51.6367 5.75179 51.4917 5.75417C49.8792 5.75417 49.4833 7.6875 49.1875 8.94167L48.2708 13.3333H45.9542L46.8875 8.83334C47.0083 8.27917 47.1792 7.41667 47.1792 6.8625C47.1849 6.71719 47.1608 6.57224 47.1084 6.43657C47.0561 6.30089 46.9765 6.17736 46.8747 6.07356C46.7728 5.96976 46.6508 5.88788 46.5162 5.83295C46.3815 5.77803 46.2371 5.75122 46.0917 5.75417C44.5167 5.75417 44.0833 7.70417 43.7917 8.94167L42.875 13.3333H40.5542L42.1792 5.125L42.3708 4.10417H44.5375L44.3292 5.34167H44.3625C44.6584 4.88837 45.0642 4.51732 45.5421 4.26306C46.0201 4.0088 46.5545 3.87961 47.0958 3.8875C48.15 3.8875 49.2375 4.53334 49.3625 5.64584H49.3958C49.9833 4.44584 51.2833 3.8875 52.525 3.8875C53.8583 3.8875 55 5.01667 55 6.41667M97.7792 3.3375C97.1891 3.3375 96.6231 3.57192 96.2059 3.98919C95.7886 4.40646 95.5542 4.97239 95.5542 5.5625C95.5553 6.15189 95.7902 6.71676 96.2073 7.13312C96.6245 7.54949 97.1898 7.78334 97.7792 7.78333C98.3678 7.78223 98.9321 7.5479 99.3483 7.13165C99.7646 6.7154 99.9989 6.15116 100 5.5625C100 4.97312 99.7661 4.40781 99.3498 3.99066C98.9334 3.57351 98.3685 3.33861 97.7792 3.3375ZM97.7875 7.45C96.75 7.45 95.9792 6.625 95.9792 5.5625C95.9792 4.49583 96.75 3.67084 97.7833 3.67084C98.8042 3.67084 99.575 4.49583 99.575 5.5625C99.575 6.625 98.8083 7.45 97.7875 7.45ZM75.2083 9.67083C75.1424 9.96631 75.1089 10.2681 75.1083 10.5708C75.1083 11.125 75.4542 11.4667 75.9458 11.4667C76.3417 11.4667 76.7375 11.3792 77.0125 11.2542L76.6375 13.1208C76.2625 13.2125 75.8333 13.3375 75.4542 13.3375C73.9583 13.3375 72.9083 12.6917 72.9083 10.9125C72.9083 10.1917 73.0417 9.49167 73.1875 8.75417L73.8125 5.62917H72.2167L72.5625 3.86667H74.1583L74.5333 1.95833L76.9 1.11667L76.3583 3.86667H78.3292L77.9833 5.625H76.0125L75.2083 9.67083ZM69.3583 3.89167C70.1344 3.8986 70.9072 3.99224 71.6625 4.17084L71.1292 5.94167C70.6101 5.72057 70.0516 5.60717 69.4875 5.60834C68.7542 5.60834 67.8333 5.80417 67.8333 6.525C67.8333 7.6625 71.0292 8.08334 71.0292 10.2875C71.0292 12.6375 68.8792 13.3375 66.7708 13.3375C65.7811 13.3607 64.7974 13.1762 63.8833 12.7958L64.4167 10.9208C65.1167 11.2875 65.8125 11.6208 66.7667 11.6208C67.5958 11.6208 68.4583 11.3583 68.4583 10.6208C68.4583 9.16667 65.2625 9.025 65.2625 6.76667C65.2625 4.64584 67.4125 3.89167 69.3583 3.89167ZM34.4417 7.32917C34.4361 8.00973 34.3639 8.68056 34.225 9.34167H29.0125C29.0125 8.9125 29.05 8.4375 29.2458 7.72917H32.2792C32.3109 7.52651 32.3276 7.32179 32.3292 7.11667C32.3292 6.15417 31.85 5.60834 30.9208 5.60834C29.6167 5.60834 29.0167 6.4 28.5875 7.55C28.359 8.12014 28.2375 8.72751 28.2292 9.34167V9.41667L28.2375 9.66667C28.3458 11.0833 29.175 11.6208 30.5917 11.6208C31.5 11.6208 32.3792 11.375 33.2042 10.9708L32.9208 12.8292C32.0488 13.1341 31.1357 13.3055 30.2125 13.3375C27.7625 13.3375 26.1125 12.075 26.1125 9.39583C26.1125 6.59167 28.1625 3.89584 30.9542 3.89584C33.0542 3.89584 34.4458 5.02917 34.4458 7.32917" fill="black"/>
</svg>
