<svg width="52" height="46" viewBox="0 0 52 46" fill="none" xmlns="http://www.w3.org/2000/svg">
<path d="M50.6342 8.45908C50.3537 9.48787 49.1067 12.0754 46.9867 14.5383C45.5838 41.5985 19.3342 50.3899 1.34606 41.3179C-1.1168 38.0445 10.231 39.385 14.3773 33.1188C-1.30385 25.1067 -0.0568345 3.68926 3.09187 4.56217C10.4804 14.5071 22.3894 15.4112 24.3223 14.5071C24.3223 12.2313 23.3558 7.27442 28.718 3.1281C31.8044 0.914653 38.2576 -1.04939 44.0874 5.2792C45.085 5.93388 46.5191 6.21446 48.6702 5.74683C49.9484 5.09215 51.6319 5.5286 50.759 7.8044L50.6342 8.45908Z" stroke="black" stroke-width="2" stroke-linecap="round" stroke-linejoin="round"/>
</svg>
